<?xml version="1.0" encoding="UTF-8" standalone="no"?>
<!-- Created with Inkscape (http://www.inkscape.org/) -->

<svg
   xmlns:dc="http://purl.org/dc/elements/1.1/"
   xmlns:cc="http://creativecommons.org/ns#"
   xmlns:rdf="http://www.w3.org/1999/02/22-rdf-syntax-ns#"
   xmlns:svg="http://www.w3.org/2000/svg"
   xmlns="http://www.w3.org/2000/svg"
   xmlns:sodipodi="http://sodipodi.sourceforge.net/DTD/sodipodi-0.dtd"
   xmlns:inkscape="http://www.inkscape.org/namespaces/inkscape"
   width="48"
   height="48"
   viewBox="0 0 12.7 12.7"
   version="1.1"
   id="svg10405"
   inkscape:version="0.92.3 (2405546, 2018-03-11)"
   sodipodi:docname="logo-single-path-square.svg">
  <defs
     id="defs10399" />
  <sodipodi:namedview
     id="base"
     pagecolor="#ffffff"
     bordercolor="#666666"
     borderopacity="1.0"
     inkscape:pageopacity="0.0"
     inkscape:pageshadow="2"
     inkscape:zoom="11.2"
     inkscape:cx="-4.2714514"
     inkscape:cy="23.130202"
     inkscape:document-units="mm"
     inkscape:current-layer="layer1"
     showgrid="false"
     units="px"
     inkscape:window-width="1920"
     inkscape:window-height="1016"
     inkscape:window-x="1920"
     inkscape:window-y="1107"
     inkscape:window-maximized="1" />
  <metadata
     id="metadata10402">
    <rdf:RDF>
      <cc:Work
         rdf:about="">
        <dc:format>image/svg+xml</dc:format>
        <dc:type
           rdf:resource="http://purl.org/dc/dcmitype/StillImage" />
        <dc:title></dc:title>
      </cc:Work>
    </rdf:RDF>
  </metadata>
  <g
     inkscape:label="Layer 1"
     inkscape:groupmode="layer"
     id="layer1"
     transform="translate(0,-284.29998)">
    <path
       style="stroke-width:1.93479002"
       d="M 7,5 C 5.89543,5 5,5.8954331 5,7 v 34 c 0,1.104567 0.89543,2 2,2 h 34 c 1.104567,0 2,-0.895433 2,-2 V 7 C 43,5.8954331 42.104567,5 41,5 Z m 23.779297,5.050781 c 0.407414,0.01711 0.835163,0.09144 1.285156,0.230469 0,0 4.772298,3.416086 -0.804687,11.324219 0.0035,0 -5.070701,5.442013 -7.216797,3.986328 0,0 -0.993315,-0.605617 -0.804688,-3.189453 0,0 1.429802,-12.6082712 7.541016,-12.351563 z m -20.548828,4.707031 c 0.296663,-0.01282 0.597656,0.05664 0.597656,0.05664 4.687225,3.149707 5.573306,7.348706 5.744141,8.900391 0.765193,-0.494703 1.693929,-0.696281 2.800781,-0.28711 0,0 5.837045,2.847008 -0.917969,9.947266 -0.0035,0 -4.337931,4.210318 -5.519531,0 0,0 -0.59228,-2.633473 0.34375,-3.861328 0,0 0.727085,2.057924 2.414062,0.246094 0,0 0.518969,-2.396117 -1.86914,-1.851563 0,0 0.78303,-2.676962 2.46289,-3.990234 -3.082112,-3.87927 -8.8691402,-3.203125 -8.8691402,-3.203125 -1.9289908,-1.170898 -10e-8,-1.806641 0,-1.806641 5.0431282,-0.04006 8.2753902,3.615235 8.2753902,3.615235 -0.893316,-4.904353 -5.517578,-6.328126 -5.517578,-6.328126 -0.9253417,-1.167826 -0.4397516,-1.416124 0.05469,-1.4375 z m 18.335937,12.285157 c 1.533934,-0.06387 2.689453,0.332031 2.689453,0.332031 1.124656,4.52708 -0.853515,7.808594 -0.853515,7.808594 -2.213704,4.847395 -5.513672,1.80664 -5.513672,1.80664 3.494961,-3.665801 3.677734,-9.947265 3.677734,-9.947265 z m -2.757812,0.0039 c 1.185159,3.99326 -1.839844,8.140625 -1.839844,8.140625 -3.537661,1.266973 -2.517578,-2.197266 -2.517578,-2.197266 2.195912,-2.363187 1.597656,-5.035156 1.597656,-5.035156 0.957379,-0.857726 2.759766,-0.908203 2.759766,-0.908203 z m 7.355468,1.804687 c 2.121176,0.256252 2.757813,3.619141 2.757813,3.619141 0.0961,2.085581 5.517578,3.617188 5.517578,3.617188 -3.470041,-0.64063 -5.517578,-0.904297 -5.517578,-0.904297 -2.644356,3.409549 -5.515625,2.710937 -5.515625,2.710937 2.889927,-2.541165 2.757812,-9.042969 2.757812,-9.042969 z"
       transform="matrix(0.26458333,0,0,0.26458333,0,284.29998)"
       id="base 1 5-1"
       inkscape:connector-curvature="0" />
  </g>
</svg>
