<?xml version="1.0" encoding="UTF-8"?><svg id="Layer_1" xmlns="http://www.w3.org/2000/svg" viewBox="0 0 400 200"><defs><style>.cls-1{fill:#fff;}.cls-2{fill:#eb8d03;}.cls-3,.cls-4{fill:none;stroke:#454545;stroke-miterlimit:10;stroke-width:13px;}.cls-4{stroke-linecap:round;}.cls-5{fill:#454545;}</style></defs><polyline class="cls-2" points="143.37 85.9 138.52 100.45 148.47 100.1 158.73 82.13 152.31 77.48"/><polygon class="cls-2" points="89.83 47.4 79.25 47.4 73.96 56.57 79.25 65.74 89.83 65.74 95.13 56.57 89.83 47.4"/><polygon class="cls-2" points="107.56 36.93 96.97 36.93 91.68 46.1 96.97 55.27 107.56 55.27 112.85 46.1 107.56 36.93"/><polygon class="cls-2" points="107.9 58.19 97.31 58.19 92.02 67.36 97.31 76.52 107.9 76.52 113.19 67.36 107.9 58.19"/><polygon class="cls-2" points="125.11 25.95 114.53 25.95 109.23 35.12 114.53 44.29 125.11 44.29 130.4 35.12 125.11 25.95"/><polygon class="cls-2" points="125.45 46.55 114.87 46.55 109.57 55.71 114.87 64.88 125.45 64.88 130.74 55.71 125.45 46.55"/><polygon class="cls-2" points="108.38 78.72 97.8 78.72 92.51 87.88 97.8 97.05 108.38 97.05 113.67 87.88 108.38 78.72"/><polygon class="cls-2" points="127.13 67.74 116.54 67.74 111.25 76.9 116.54 86.07 127.13 86.07 132.42 76.9 127.13 67.74"/><polygon class="cls-2" points="128.66 89.33 118.07 89.33 112.78 98.5 118.07 107.66 128.66 107.66 133.95 98.5 128.66 89.33"/><polygon class="cls-2" points="144.51 57.1 133.93 57.1 128.63 66.26 133.93 75.43 144.51 75.43 149.8 66.26 144.51 57.1"/><polygon class="cls-2" points="161.53 66.97 150.94 66.97 145.65 76.13 150.94 85.3 156.95 80.73 166.82 76.13 161.53 66.97"/><polygon class="cls-2" points="145.36 99.81 134.78 99.81 129.48 108.98 134.78 118.14 145.36 118.14 145.81 108.98 145.36 99.81"/><polygon class="cls-2" points="161.53 47.06 150.94 47.06 145.65 56.22 150.94 65.39 161.53 65.39 166.82 56.22 161.53 47.06"/><polygon class="cls-2" points="127.49 109.17 116.91 109.17 111.62 118.33 116.91 127.5 127.49 127.5 132.78 118.33 127.49 109.17"/><polygon class="cls-2" points="144.85 77.69 134.27 77.69 128.97 86.85 134.27 96.02 144.85 96.02 150.14 86.85 144.85 77.69"/><polygon class="cls-2" points="183.78 124.22 163.09 124.32 155.39 136.16 164.56 139.25 178.83 138.61 190.34 135.42 183.78 124.22"/><polygon class="cls-2" points="201.32 105.3 197.84 103.62 187.73 121.68 194.94 133.64 197.75 131.34 207.45 117.46 201.32 105.3"/><polygon class="cls-2" points="148.56 104.54 144.66 98.56 139.55 113.98 146.69 129.81 151.03 132.36 159 122.41 148.56 104.54"/><line class="cls-4" x1="195.32" y1="147.43" x2="212.65" y2="182.84"/><circle class="cls-3" cx="172.88" cy="104.98" r="31.78"/><g><path class="cls-5" d="M152.32,17.83c.03-.35,.38-.66,.7-.66h3.45c.35,0,.56,.31,.52,.66l-2.02,14.25c-.42,2.96,.98,5.23,3.42,5.23s4.53-2.27,4.95-5.19l2.02-14.29c.03-.35,.35-.66,.7-.66h3.45c.31,0,.56,.31,.52,.66l-2.06,14.5c-.73,5.3-4.74,9.58-10.21,9.58-4.84,0-8.22-4.29-7.49-9.58l2.06-14.5Z"/><path class="cls-5" d="M172.67,28.28c.04-.38,.35-.66,.66-.66h1.36c.21,0,.45,.17,.49,.42l.31,1.29c.66-.59,2.37-2.06,4.7-2.06,3.83,0,5.33,3.31,4.81,6.94l-.94,6.69c-.03,.35-.35,.66-.66,.66h-3.03c-.35,0-.52-.31-.49-.66l1.01-6.9c.24-1.81-.38-2.96-1.78-2.96-1.81,0-3,1.95-3,1.95l-1.12,7.91c-.07,.49-.24,.66-.73,.66h-2.89c-.31,0-.56-.31-.49-.66l1.78-12.62Z"/><path class="cls-5" d="M200.17,40.9c-.03,.35-.38,.66-.7,.66h-1.36c-.21,0-.45-.1-.56-.59l-.21-1.04c-.52,.49-2.02,1.99-4.5,1.99-2.93,0-5.12-2.86-5.12-6.41,0-4.5,3.1-8.22,7.18-8.22,1.99,0,3.42,1.25,3.9,1.92l.63-1.12c.14-.24,.31-.45,.63-.45h1.36c.31,0,.56,.28,.49,.66l-1.74,12.62Zm-3-7.91c-.1-.59-.8-1.95-2.27-1.95-1.6,0-3.28,1.64-3.28,4.39,0,1.5,.87,2.72,2.3,2.72s2.58-1.57,2.82-2.27l.42-2.89Z"/><path class="cls-5" d="M204.94,35.04l.98-6.76c.04-.38,.35-.66,.66-.66h3.03c.31,0,.56,.28,.49,.66l-.98,6.87c-.24,1.85,.35,3,1.53,3,1.71,0,2.65-1.99,2.65-1.99l1.08-7.88c.1-.52,.38-.66,.77-.66h2.86c.31,0,.56,.28,.49,.66l-1.74,12.62c-.04,.35-.38,.66-.7,.66h-1.36c-.28,0-.45-.24-.52-.52l-.24-1.15c-.73,.8-2.06,2.02-4.53,2.02-3.8,0-4.98-3.31-4.46-6.87Z"/><path class="cls-5" d="M222.96,31.28h-1.25c-.31,0-.52-.31-.49-.66l.31-2.33c.07-.38,.35-.66,.66-.66h1.29l.52-3.87c.07-.35,.38-.66,.7-.66l3.03-.04c.31,0,.52,.31,.45,.66l-.52,3.9h2.51c.35,0,.56,.28,.49,.66l-.31,2.33c-.07,.35-.35,.66-.7,.66h-2.51l-.8,5.51c-.14,.98,.35,1.12,.77,1.12,.49,0,1.05-.28,1.39-.42,.35-.14,.59,.03,.66,.38l.35,2.3c.07,.35-.14,.63-.52,.84-.28,.17-2.3,.91-3.87,.91-2.4,0-3.42-1.67-3.03-4.5l.87-6.13Z"/><path class="cls-5" d="M235.54,17.83c.04-.35,.38-.66,.7-.66h3.1c.31,0,.56,.31,.52,.66l-1.5,10.59c.77-.59,2.09-1.15,3.24-1.15,3.97,0,5.37,3.42,4.88,6.94l-.94,6.69c-.04,.35-.38,.66-.7,.66h-3c-.35,0-.52-.31-.49-.66l.94-6.76c.28-1.92-.42-3.1-1.95-3.1-1.71,0-2.61,1.88-2.61,1.88l-1.12,7.98c-.07,.38-.28,.66-.77,.66h-3.07c-.31,0-.52-.31-.49-.66l3.24-23.07Z"/><path class="cls-5" d="M256.76,27.27c3.21,0,5.54,2.93,5.54,6.34,0,4.5-3.48,8.29-7.6,8.29-3.24,0-5.54-3.03-5.54-6.38,0-4.46,3.42-8.26,7.6-8.26Zm1.67,6.73c0-1.64-.87-2.96-2.2-2.96-1.71,0-3.24,1.85-3.24,4.08,0,1.67,.87,3.03,2.23,3.03,1.67,0,3.21-1.88,3.21-4.15Z"/><path class="cls-5" d="M266.24,28.28c.04-.38,.35-.66,.66-.66h1.36c.21,0,.45,.21,.52,.45l.31,1.36c.52-.73,1.99-2.16,3.76-2.16,1.01,0,1.85,.31,2.2,.56,.24,.17,.28,.45,.07,.84l-1.29,2.26c-.17,.31-.42,.42-.73,.28-.31-.14-.87-.21-1.19-.21-1.29,0-2.13,1.46-2.13,1.46l-1.19,8.43c-.07,.49-.31,.66-.8,.66h-2.86c-.31,0-.56-.31-.49-.66l1.78-12.62Z"/><path class="cls-5" d="M277.53,28.28c.07-.38,.38-.66,.7-.66h3.07c.31,0,.59,.28,.52,.66l-1.78,12.62c-.03,.35-.38,.66-.7,.66h-3.07c-.31,0-.56-.31-.52-.66l1.78-12.62Zm.87-7.7c0-1.5,1.29-2.72,2.68-2.72,1.22,0,2.09,.94,2.09,2.13,0,1.46-1.32,2.68-2.75,2.68-1.19,0-2.02-.94-2.02-2.09Z"/><path class="cls-5" d="M283.14,40.9l.07-.35,5.4-9.13v-.07h-3.24c-.31,0-.49-.31-.45-.66l.31-2.41c.03-.38,.35-.66,.66-.66h8.4c.49,0,.7,.49,.42,.94l-5.58,9.2v.1h3.1c.35,0,.52,.28,.49,.66l-.31,2.37c-.03,.35-.35,.66-.7,.66h-8.05c-.31,0-.59-.31-.52-.66Z"/><path class="cls-5" d="M304.01,27.27c2.75,0,4.46,1.57,4.46,3.69,0,3.55-5.19,4.74-8.75,4.77-.1,1.43,.56,2.54,2.3,2.54,.84,0,1.88-.42,2.47-.84,.31-.21,.63-.28,.8,0l1.15,1.64c.17,.24,.17,.63-.1,.91-1.22,1.12-2.96,1.92-4.98,1.92-3.35,0-5.54-2.86-5.54-6.2,0-4.36,3.31-8.43,8.19-8.43Zm.52,4.11c0-.49-.38-.87-1.19-.87-1.39,0-2.72,1.32-3.1,2.51,1.67-.04,4.29-.52,4.29-1.64Z"/><path class="cls-5" d="M309.9,35.5c0-4.53,3.21-8.22,7.32-8.22,1.01,0,2.13,.35,2.61,.66l1.43-10.11c.07-.59,.98-.66,1.46-.66h2.33c.31,0,.56,.31,.52,.66l-3.24,23.07c-.03,.35-.38,.66-.7,.66h-1.36c-.21,0-.45-.1-.56-.59l-.21-1.04c-.52,.49-2.23,1.99-4.5,1.99-2.93,0-5.12-2.86-5.12-6.41Zm6.2,2.65c1.46,0,2.58-1.57,2.82-2.27l.38-4.01s-.7-.84-2.13-.84c-1.81,0-3.38,1.99-3.38,4.39,0,1.5,.87,2.72,2.3,2.72Z"/><path class="cls-5" d="M330.25,36.16c1.43,0,2.47,1.19,2.47,2.54,0,1.74-1.6,3.21-3.28,3.21-1.36,0-2.4-1.15-2.4-2.51,0-1.74,1.57-3.24,3.21-3.24Zm-.49-4.63l-.03-9.72,.56-3.97c.03-.35,.35-.66,.66-.66h4.01c.31,0,.52,.31,.49,.66l-.56,3.9-2.75,9.79c-.07,.28-.42,.56-.7,.56h-1.15c-.31,0-.56-.28-.52-.56Z"/></g><g><polygon class="cls-2" points="183.27 84.42 162.57 84.53 152.32 102.5 162.75 120.36 183.44 120.26 193.7 102.29 183.27 84.42"/><g id="lock_black_24dp"><path class="cls-1" d="M179.75,97.61h-1.07v-2.13c0-2.94-2.39-5.33-5.33-5.33s-5.33,2.39-5.33,5.33v2.13h-1.07c-1.17,0-2.13,.96-2.13,2.13v10.65c0,1.17,.96,2.13,2.13,2.13h12.78c1.17,0,2.13-.96,2.13-2.13v-10.65c0-1.17-.96-2.13-2.13-2.13Zm-9.59-2.13c0-1.77,1.43-3.2,3.2-3.2s3.2,1.43,3.2,3.2v2.13h-6.39v-2.13Zm9.59,14.91h-12.78v-10.65h12.78v10.65Zm-6.39-3.2c1.17,0,2.13-.96,2.13-2.13s-.96-2.13-2.13-2.13-2.13,.96-2.13,2.13,.96,2.13,2.13,2.13Z"/></g></g><path class="cls-5" d="M64.6,124.98l1.4-10.56,48.36-55.74c.38-.51,.89-.76,1.91-.76h7.38c1.15,0,2.04,1.02,1.78,2.42l-7.51,54.21h9.04c1.27,0,2.04,1.02,1.91,2.29l-1.15,7.89c-.13,1.27-1.27,2.42-2.54,2.42h-9.04l-2.16,16.29c-.25,1.27-1.4,2.42-2.55,2.42h-11.07c-1.15,0-2.04-1.15-1.91-2.42l2.29-16.04h-34.36c-1.27,0-2.04-1.14-1.78-2.42Zm38.43-10.82l4.45-28.12-24.31,28.12h19.85Z"/><path class="cls-5" d="M239.19,82.48l-10.94,2.42c-1.15,.25-2.16-.51-2.04-1.65l.64-7c.13-1.27,.38-1.91,1.65-2.93l18.07-14h9.42c1.15,0,1.91,1.15,1.78,2.42l-11.45,81.7c-.13,1.27-1.27,2.42-2.42,2.42h-11.45c-1.27,0-2.04-1.15-1.91-2.42l8.65-60.96Z"/></svg>