<?xml version="1.0" encoding="UTF-8"?><svg id="Layer_1" xmlns="http://www.w3.org/2000/svg" viewBox="0 0 400 200"><defs><style>.cls-1{stroke:#eb8d03;stroke-width:.94px;}.cls-1,.cls-2,.cls-3{fill:none;stroke-miterlimit:10;}.cls-4{fill:#eb8d03;}.cls-2,.cls-3{stroke:#454545;stroke-width:13px;}.cls-3{stroke-linecap:round;}.cls-5{fill:#454545;}</style></defs><polygon class="cls-4" points="81.27 47.98 70.68 47.98 65.39 57.15 70.68 66.31 81.27 66.31 86.56 57.15 81.27 47.98"/><polygon class="cls-4" points="98.99 37.51 88.41 37.51 83.12 46.68 88.41 55.84 98.99 55.84 104.28 46.68 98.99 37.51"/><polygon class="cls-4" points="99.33 58.77 88.75 58.77 83.46 67.93 88.75 77.1 99.33 77.1 104.62 67.93 99.33 58.77"/><polygon class="cls-4" points="116.54 26.53 105.96 26.53 100.67 35.7 105.96 44.86 116.54 44.86 121.84 35.7 116.54 26.53"/><polygon class="cls-4" points="116.88 47.12 106.3 47.12 101.01 56.29 106.3 65.45 116.88 65.45 122.18 56.29 116.88 47.12"/><polygon class="cls-4" points="99.82 79.29 89.23 79.29 83.94 88.46 89.23 97.63 99.82 97.63 105.11 88.46 99.82 79.29"/><polygon class="cls-4" points="118.56 68.31 107.98 68.31 102.69 77.48 107.98 86.64 118.56 86.64 123.85 77.48 118.56 68.31"/><polygon class="cls-4" points="120.09 89.91 109.51 89.91 104.22 99.08 109.51 108.24 120.09 108.24 125.38 99.08 120.09 89.91"/><polygon class="cls-4" points="135.94 57.67 125.36 57.67 120.07 66.84 125.36 76 135.94 76 141.24 66.84 135.94 57.67"/><polygon class="cls-4" points="152.96 67.54 142.38 67.54 137.09 76.71 142.38 85.87 148.39 81.3 158.25 76.71 152.96 67.54"/><polygon class="cls-4" points="136.79 100.39 126.21 100.39 120.92 109.55 126.21 118.72 136.79 118.72 137.24 109.55 136.79 100.39"/><polygon class="cls-4" points="152.96 47.63 142.38 47.63 137.09 56.8 142.38 65.96 152.96 65.96 158.25 56.8 152.96 47.63"/><polygon class="cls-4" points="118.93 109.75 108.34 109.75 103.05 118.91 108.34 128.08 118.93 128.08 124.22 118.91 118.93 109.75"/><polygon class="cls-4" points="136.28 78.26 125.7 78.26 120.41 87.43 125.7 96.6 136.28 96.6 141.58 87.43 136.28 78.26"/><polygon class="cls-1" points="174.96 79.13 154.26 79.23 144.01 97.2 154.44 115.07 175.13 114.97 185.39 97 174.96 79.13"/><polyline class="cls-1" points="185.39 132.94 174.96 115.07 154.26 115.17 144.01 133.14"/><line class="cls-3" x1="186.75" y1="148.01" x2="204.09" y2="183.41"/><line class="cls-1" x1="133.84" y1="97.05" x2="144.56" y2="97.05"/><line class="cls-1" x1="185.4" y1="97.05" x2="192.04" y2="97.05"/><circle class="cls-2" cx="164.31" cy="105.56" r="31.78"/><g><path class="cls-5" d="M56.54,125.56l1.4-10.56,48.36-55.74c.38-.51,.89-.76,1.91-.76h7.38c1.15,0,2.04,1.02,1.78,2.42l-7.51,54.21h9.04c1.27,0,2.04,1.02,1.91,2.29l-1.15,7.89c-.13,1.27-1.27,2.42-2.54,2.42h-9.04l-2.16,16.29c-.25,1.27-1.4,2.42-2.55,2.42h-11.07c-1.15,0-2.04-1.15-1.91-2.42l2.29-16.03H58.32c-1.27,0-2.04-1.15-1.78-2.42Zm38.43-10.82l4.45-28.12-24.31,28.12h19.85Z"/><path class="cls-5" d="M211.92,125.56l1.4-10.56,48.36-55.74c.38-.51,.89-.76,1.91-.76h7.38c1.14,0,2.04,1.02,1.78,2.42l-7.51,54.21h9.04c1.27,0,2.04,1.02,1.91,2.29l-1.14,7.89c-.13,1.27-1.27,2.42-2.55,2.42h-9.04l-2.16,16.29c-.25,1.27-1.4,2.42-2.54,2.42h-11.07c-1.15,0-2.04-1.15-1.91-2.42l2.29-16.03h-34.36c-1.27,0-2.04-1.15-1.78-2.42Zm38.43-10.82l4.45-28.12-24.31,28.12h19.85Z"/></g><g><path class="cls-5" d="M148.08,17.6c.03-.35,.35-.66,.7-.66h7.46c3.49,0,6.03,3.31,6.03,6.97,0,5.09-3.69,8.57-8.19,8.57h-3.55l-1.15,8.19c-.04,.35-.38,.66-.7,.66h-3.35c-.35,0-.56-.31-.49-.66l3.24-23.07Zm6.27,10.63c1.71,0,3.35-1.85,3.35-4.11,0-1.64-1.01-2.89-2.37-2.89h-3.24l-.98,7.01h3.24Z"/><path class="cls-5" d="M174.18,40.67c-.03,.35-.38,.66-.7,.66h-1.36c-.21,0-.45-.1-.56-.59l-.21-1.04c-.52,.49-2.02,1.99-4.5,1.99-2.93,0-5.12-2.86-5.12-6.41,0-4.5,3.1-8.22,7.18-8.22,1.99,0,3.42,1.25,3.9,1.92l.63-1.12c.14-.24,.31-.45,.63-.45h1.36c.31,0,.56,.28,.49,.66l-1.74,12.62Zm-3-7.91c-.1-.59-.8-1.95-2.27-1.95-1.6,0-3.28,1.64-3.28,4.39,0,1.5,.87,2.72,2.3,2.72s2.58-1.57,2.82-2.27l.42-2.89Z"/><path class="cls-5" d="M178.23,35.37c0-4.5,3.21-8.33,7.18-8.33,1.99,0,3.42,1.22,3.9,1.92l.63-1.12c.14-.24,.42-.45,.63-.45h1.36c.31,0,.56,.28,.49,.66l-2.06,14.81c-.8,5.65-3.69,7.53-7.53,7.53-2.23,0-4.11-1.29-4.88-2.13-.35-.35-.63-.73-.14-1.32l1.19-1.5c.38-.49,.8-.28,1.15,0,.45,.38,1.43,1.22,2.82,1.22,1.67,0,2.61-1.18,3.07-3.9l.28-1.85c-.63,.35-1.78,.77-2.79,.77-3.1,0-5.3-2.79-5.3-6.31Zm6.34,2.54c1.43,0,2.27-.8,2.27-.8l.73-4.88c-.17-.45-.84-1.43-2.16-1.43-1.78,0-3.21,2.06-3.21,4.29,0,1.64,.91,2.82,2.37,2.82Z"/><path class="cls-5" d="M202.72,27.04c2.75,0,4.46,1.57,4.46,3.69,0,3.55-5.19,4.74-8.75,4.77-.1,1.43,.56,2.54,2.3,2.54,.84,0,1.88-.42,2.47-.84,.31-.21,.63-.28,.8,0l1.15,1.64c.17,.24,.17,.63-.1,.91-1.22,1.12-2.96,1.92-4.98,1.92-3.35,0-5.54-2.86-5.54-6.2,0-4.36,3.31-8.43,8.19-8.43Zm.52,4.11c0-.49-.38-.87-1.19-.87-1.39,0-2.72,1.32-3.1,2.51,1.67-.04,4.29-.52,4.29-1.64Z"/><path class="cls-5" d="M218.3,28.05c.04-.38,.35-.66,.66-.66h1.36c.21,0,.45,.17,.49,.42l.31,1.29c.66-.59,2.37-2.06,4.7-2.06,3.83,0,5.33,3.31,4.81,6.94l-.94,6.69c-.03,.35-.35,.66-.66,.66h-3.03c-.35,0-.52-.31-.49-.66l1.01-6.9c.24-1.81-.38-2.96-1.78-2.96-1.81,0-3,1.95-3,1.95l-1.12,7.91c-.07,.49-.24,.66-.73,.66h-2.89c-.31,0-.56-.31-.49-.66l1.78-12.62Z"/><path class="cls-5" d="M240.92,27.04c3.21,0,5.54,2.93,5.54,6.34,0,4.5-3.48,8.29-7.6,8.29-3.24,0-5.54-3.03-5.54-6.38,0-4.46,3.42-8.26,7.6-8.26Zm1.67,6.73c0-1.64-.87-2.96-2.2-2.96-1.71,0-3.24,1.85-3.24,4.08,0,1.67,.87,3.03,2.23,3.03,1.67,0,3.21-1.88,3.21-4.15Z"/><path class="cls-5" d="M250.78,31.05h-1.25c-.31,0-.52-.31-.49-.66l.31-2.33c.07-.38,.35-.66,.66-.66h1.29l.52-3.87c.07-.35,.38-.66,.7-.66l3.03-.04c.31,0,.52,.31,.45,.66l-.52,3.9h2.51c.35,0,.56,.28,.49,.66l-.31,2.33c-.07,.35-.35,.66-.7,.66h-2.51l-.8,5.51c-.14,.98,.35,1.12,.77,1.12,.49,0,1.05-.28,1.39-.42,.35-.14,.59,.03,.66,.38l.35,2.3c.07,.35-.14,.63-.52,.84-.28,.17-2.3,.91-3.87,.91-2.4,0-3.42-1.67-3.03-4.5l.87-6.13Z"/><path class="cls-5" d="M270.08,31.05h-1.19c-.35,0-.56-.31-.52-.66l.35-2.33c.03-.38,.31-.66,.66-.66h1.19l.56-3.76c.77-5.02,3.24-7.04,6.94-7.04,1.67,0,3.31,.8,3.76,1.36,.17,.17,.17,.56,.03,.8l-1.22,2.16c-.28,.45-.59,.49-.94,.28-.31-.17-.91-.49-1.74-.49-1.32,0-2.16,1.01-2.44,2.93l-.52,3.76h3c.35,0,.56,.28,.49,.66l-.31,2.33c-.03,.35-.35,.66-.7,.66h-3l-2.89,20.07c-.07,.35-.38,.66-.7,.66h-3.24c-.31,0-.56-.31-.49-.66l2.93-20.07Z"/><path class="cls-5" d="M286.85,27.04c3.21,0,5.54,2.93,5.54,6.34,0,4.5-3.48,8.29-7.6,8.29-3.24,0-5.54-3.03-5.54-6.38,0-4.46,3.42-8.26,7.6-8.26Zm1.67,6.73c0-1.64-.87-2.96-2.2-2.96-1.71,0-3.24,1.85-3.24,4.08,0,1.67,.87,3.03,2.23,3.03,1.67,0,3.21-1.88,3.21-4.15Z"/><path class="cls-5" d="M295.14,34.81l.98-6.76c.03-.38,.35-.66,.66-.66h3.03c.31,0,.56,.28,.49,.66l-.98,6.87c-.24,1.85,.35,3,1.53,3,1.71,0,2.65-1.99,2.65-1.99l1.08-7.88c.1-.52,.38-.66,.77-.66h2.86c.31,0,.56,.28,.49,.66l-1.74,12.62c-.04,.35-.38,.66-.7,.66h-1.36c-.28,0-.45-.24-.52-.52l-.24-1.15c-.73,.8-2.06,2.02-4.53,2.02-3.8,0-4.98-3.31-4.46-6.87Z"/><path class="cls-5" d="M312.77,28.05c.04-.38,.35-.66,.66-.66h1.36c.21,0,.45,.17,.49,.42l.31,1.29c.66-.59,2.37-2.06,4.7-2.06,3.83,0,5.33,3.31,4.81,6.94l-.94,6.69c-.03,.35-.35,.66-.66,.66h-3.03c-.35,0-.52-.31-.49-.66l1.01-6.9c.24-1.81-.38-2.96-1.78-2.96-1.81,0-3,1.95-3,1.95l-1.12,7.91c-.07,.49-.24,.66-.73,.66h-2.89c-.31,0-.56-.31-.49-.66l1.78-12.62Z"/><path class="cls-5" d="M327.83,35.27c0-4.53,3.21-8.22,7.32-8.22,1.01,0,2.13,.35,2.61,.66l1.43-10.11c.07-.59,.98-.66,1.46-.66h2.33c.31,0,.56,.31,.52,.66l-3.24,23.07c-.03,.35-.38,.66-.7,.66h-1.36c-.21,0-.45-.1-.56-.59l-.21-1.04c-.52,.49-2.23,1.99-4.5,1.99-2.93,0-5.12-2.86-5.12-6.41Zm6.2,2.65c1.46,0,2.58-1.57,2.82-2.27l.38-4.01s-.7-.84-2.13-.84c-1.81,0-3.38,1.99-3.38,4.39,0,1.5,.87,2.72,2.3,2.72Z"/></g></svg>