<?xml version="1.0" encoding="UTF-8"?><svg id="Layer_1" xmlns="http://www.w3.org/2000/svg" viewBox="0 0 400 200"><defs><style>.cls-1{fill:#eb8d03;}.cls-2{stroke:#fff;stroke-width:3.74px;}.cls-2,.cls-3,.cls-4{fill:none;stroke-miterlimit:10;}.cls-2,.cls-4{stroke-linecap:round;}.cls-3,.cls-4{stroke:#454545;stroke-width:13px;}.cls-5{fill:#a0a09f;}.cls-6{fill:#454545;}</style></defs><polygon class="cls-1" points="49.34 47.98 38.76 47.98 33.47 57.14 38.76 66.31 49.34 66.31 54.64 57.14 49.34 47.98"/><polygon class="cls-1" points="67.07 37.51 56.48 37.51 51.19 46.67 56.48 55.84 67.07 55.84 72.36 46.67 67.07 37.51"/><polygon class="cls-1" points="67.41 58.77 56.82 58.77 51.53 67.93 56.82 77.1 67.41 77.1 72.7 67.93 67.41 58.77"/><polygon class="cls-1" points="84.62 26.53 74.04 26.53 68.75 35.69 74.04 44.86 84.62 44.86 89.91 35.69 84.62 26.53"/><polygon class="cls-1" points="84.96 47.12 74.38 47.12 69.09 56.29 74.38 65.45 84.96 65.45 90.25 56.29 84.96 47.12"/><polygon class="cls-1" points="67.89 79.29 57.31 79.29 52.02 88.46 57.31 97.62 67.89 97.62 73.19 88.46 67.89 79.29"/><polygon class="cls-1" points="86.64 68.31 76.05 68.31 70.76 77.48 76.05 86.64 86.64 86.64 91.93 77.48 86.64 68.31"/><polygon class="cls-1" points="88.17 89.91 77.59 89.91 72.29 99.07 77.59 108.24 88.17 108.24 93.46 99.07 88.17 89.91"/><polygon class="cls-1" points="104.02 57.67 93.44 57.67 88.15 66.84 93.44 76 104.02 76 109.31 66.84 104.02 57.67"/><polygon class="cls-1" points="104.87 100.38 94.29 100.38 89 109.55 94.29 118.72 104.87 118.72 105.32 109.55 104.87 100.38"/><polygon class="cls-1" points="87 109.74 76.42 109.74 71.13 118.91 76.42 128.07 87 128.07 92.29 118.91 87 109.74"/><polygon class="cls-1" points="104.36 78.26 93.78 78.26 88.49 87.43 93.78 96.59 104.36 96.59 109.65 87.43 104.36 78.26"/><g><path class="cls-6" d="M34.69,132.39l6.49-6.11c1.02-1.02,2.42-.89,3.69,.64,1.4,1.65,6.11,5.98,12.47,5.98,8.65,0,15.4-8.27,15.4-17.43,0-6.62-3.69-11.96-10.94-11.96h-17.69c-2.29,0-3.18-2.42-2.93-4.45l5.34-37.54c.13-1.27,1.27-2.42,2.55-2.42h36.52c1.27,0,2.04,1.15,1.91,2.42l-1.27,8.65c-.13,1.27-1.27,2.42-2.54,2.42h-24.31l-2.42,16.92h8.91c14.25,0,22.52,10.69,22.52,25.07,0,19.09-12.47,32.32-31.05,32.32-13.62,0-21-8.14-23.16-11.33-.64-.89-.38-2.42,.51-3.18Z"/><path class="cls-6" d="M171.75,132.39l6.74-6.11c1.02-1.02,2.55-1.02,3.69,.64,1.91,2.54,6.11,5.98,12.22,5.98,7.13,0,12.73-5.34,12.73-13.11,0-5.85-4.45-11.33-12.85-11.33h-6.49c-1.15,0-2.04-1.02-1.78-2.54l1.15-8.02c.25-1.65,1.27-2.54,2.54-2.54h6.36c9.54,0,15.4-6.49,15.4-13.87,0-5.09-3.56-8.4-8.4-8.4-5.6,0-9.16,4.07-11.45,6.24-1.02,1.02-2.29,1.15-3.18,.13l-6.11-7.13c-.76-.89-.51-2.42,.38-3.31,2.42-2.54,10.44-11.2,23.03-11.2s21.89,8.02,21.89,20.23-8.91,20.62-15.02,23.54v.38c4.58,2.29,11.2,8.65,11.2,18.07,0,15.02-11.33,26.85-29.4,26.85-14.38,0-21-8.14-23.16-11.33-.64-.89-.38-2.42,.51-3.18Z"/></g><g><path class="cls-6" d="M109.53,37.92l1.36-1.99c.31-.49,.8-.38,1.08-.14,.49,.42,2.2,1.81,4.32,1.81,1.57,0,3.1-1.22,3.1-2.96,0-1.53-1.05-2.54-3-3.83-2.3-1.5-5.02-3.48-5.02-6.97s2.4-7.25,7.88-7.25c3.24,0,5.61,1.67,6.2,2.27,.42,.42,.45,.91,.1,1.39l-1.36,1.92c-.28,.42-.73,.45-1.22,.07-.56-.45-2.16-1.53-3.94-1.53s-2.96,1.36-2.96,2.72,.94,2.09,3.03,3.48c2.3,1.53,5.37,3.45,5.37,7.28,0,4.08-3.17,7.49-8.33,7.49-3.59,0-6.06-2.09-6.62-2.72-.21-.21-.38-.52,0-1.04Z"/><path class="cls-6" d="M134.9,27.05c2.75,0,4.46,1.57,4.46,3.69,0,3.55-5.19,4.74-8.75,4.77-.1,1.43,.56,2.54,2.3,2.54,.84,0,1.88-.42,2.47-.84,.31-.21,.63-.28,.8,0l1.15,1.64c.17,.24,.17,.63-.1,.91-1.22,1.12-2.96,1.92-4.98,1.92-3.35,0-5.54-2.86-5.54-6.2,0-4.36,3.31-8.43,8.19-8.43Zm.52,4.11c0-.49-.38-.87-1.19-.87-1.39,0-2.72,1.32-3.1,2.51,1.67-.04,4.29-.52,4.29-1.64Z"/><path class="cls-6" d="M142.67,28.06c.04-.38,.35-.66,.66-.66h1.36c.21,0,.45,.21,.52,.45l.31,1.36c.52-.73,1.99-2.16,3.76-2.16,1.01,0,1.85,.31,2.2,.56,.24,.17,.28,.45,.07,.84l-1.29,2.26c-.17,.31-.42,.42-.73,.28-.31-.14-.87-.21-1.19-.21-1.29,0-2.13,1.46-2.13,1.46l-1.19,8.43c-.07,.49-.31,.66-.8,.66h-2.86c-.31,0-.56-.31-.49-.66l1.78-12.62Z"/><path class="cls-6" d="M152.56,28.2c-.14-.45,.14-.8,.59-.8h2.75c.31,0,.45,.17,.52,.38l1.6,6.13h.1l3.28-6.13c.21-.35,.45-.38,.84-.38h2.89c.45,0,.63,.42,.35,.87l-7.67,13.07c-.1,.21-.31,.35-.59,.35h-.14c-.28,0-.42-.17-.49-.35l-4.04-13.14Z"/><path class="cls-6" d="M167.9,28.06c.07-.38,.38-.66,.7-.66h3.07c.31,0,.59,.28,.52,.66l-1.78,12.62c-.03,.35-.38,.66-.7,.66h-3.07c-.31,0-.56-.31-.52-.66l1.78-12.62Zm.87-7.7c0-1.5,1.29-2.72,2.68-2.72,1.22,0,2.09,.94,2.09,2.13,0,1.46-1.32,2.68-2.75,2.68-1.18,0-2.02-.94-2.02-2.09Z"/><path class="cls-6" d="M181.77,27.05c2.13,0,3.87,1.12,4.74,2.47,.21,.31,.03,.7-.28,.98l-1.39,1.29c-.31,.28-.7,.14-.87-.04-.38-.35-.94-.94-2.09-.94-1.67,0-3.38,1.71-3.38,4.11,0,1.67,.91,3,2.23,3,1.22,0,2.06-.87,2.47-1.33,.21-.24,.56-.35,.87-.03l1.36,1.32c.28,.28,.35,.63,.1,.98-1.22,1.6-3.03,2.82-5.23,2.82-3.45,0-5.96-2.75-5.96-6.48,0-4.77,3.42-8.16,7.42-8.16Z"/><path class="cls-6" d="M196.26,27.05c2.75,0,4.46,1.57,4.46,3.69,0,3.55-5.19,4.74-8.75,4.77-.1,1.43,.56,2.54,2.3,2.54,.84,0,1.88-.42,2.47-.84,.31-.21,.63-.28,.8,0l1.15,1.64c.17,.24,.17,.63-.1,.91-1.22,1.12-2.96,1.92-4.98,1.92-3.35,0-5.54-2.86-5.54-6.2,0-4.36,3.31-8.43,8.19-8.43Zm.52,4.11c0-.49-.38-.87-1.19-.87-1.39,0-2.72,1.32-3.1,2.51,1.67-.04,4.29-.52,4.29-1.64Z"/><path class="cls-6" d="M214.11,17.6c.03-.35,.38-.66,.7-.66h3.45c.35,0,.56,.31,.52,.66l-2.02,14.25c-.42,2.96,.98,5.23,3.42,5.23s4.53-2.27,4.95-5.19l2.02-14.29c.03-.35,.35-.66,.7-.66h3.45c.31,0,.56,.31,.52,.66l-2.06,14.5c-.73,5.3-4.74,9.58-10.21,9.58-4.84,0-8.22-4.29-7.49-9.58l2.06-14.5Z"/><path class="cls-6" d="M234.46,28.06c.04-.38,.35-.66,.66-.66h1.36c.21,0,.45,.17,.49,.42l.31,1.29c.66-.59,2.37-2.06,4.7-2.06,3.83,0,5.33,3.31,4.81,6.94l-.94,6.69c-.03,.35-.35,.66-.66,.66h-3.03c-.35,0-.52-.31-.49-.66l1.01-6.9c.24-1.81-.38-2.96-1.78-2.96-1.81,0-3,1.95-3,1.95l-1.12,7.91c-.07,.49-.24,.66-.73,.66h-2.89c-.31,0-.56-.31-.49-.66l1.78-12.62Z"/><path class="cls-6" d="M261.95,40.67c-.03,.35-.38,.66-.7,.66h-1.36c-.21,0-.45-.1-.56-.59l-.21-1.04c-.52,.49-2.02,1.99-4.5,1.99-2.93,0-5.12-2.86-5.12-6.41,0-4.5,3.1-8.22,7.18-8.22,1.99,0,3.42,1.25,3.9,1.92l.63-1.12c.14-.24,.31-.45,.63-.45h1.36c.31,0,.56,.28,.49,.66l-1.74,12.62Zm-3-7.91c-.1-.59-.8-1.95-2.27-1.95-1.6,0-3.28,1.64-3.28,4.39,0,1.5,.87,2.72,2.3,2.72s2.58-1.57,2.82-2.27l.42-2.89Z"/><path class="cls-6" d="M266.06,28.2c-.14-.45,.14-.8,.59-.8h2.75c.31,0,.45,.17,.52,.38l1.6,6.13h.1l3.28-6.13c.21-.35,.45-.38,.84-.38h2.89c.45,0,.63,.42,.35,.87l-7.67,13.07c-.1,.21-.31,.35-.59,.35h-.14c-.28,0-.42-.17-.49-.35l-4.04-13.14Z"/><path class="cls-6" d="M291.96,40.67c-.03,.35-.38,.66-.7,.66h-1.36c-.21,0-.45-.1-.56-.59l-.21-1.04c-.52,.49-2.02,1.99-4.5,1.99-2.93,0-5.12-2.86-5.12-6.41,0-4.5,3.1-8.22,7.18-8.22,1.99,0,3.42,1.25,3.9,1.92l.63-1.12c.14-.24,.31-.45,.63-.45h1.36c.31,0,.56,.28,.49,.66l-1.74,12.62Zm-3-7.91c-.1-.59-.8-1.95-2.27-1.95-1.6,0-3.28,1.64-3.28,4.39,0,1.5,.87,2.72,2.3,2.72s2.58-1.57,2.82-2.27l.42-2.89Z"/><path class="cls-6" d="M297.91,28.06c.07-.38,.38-.66,.7-.66h3.07c.31,0,.59,.28,.52,.66l-1.78,12.62c-.03,.35-.38,.66-.7,.66h-3.07c-.31,0-.56-.31-.52-.66l1.78-12.62Zm.87-7.7c0-1.5,1.29-2.72,2.68-2.72,1.22,0,2.09,.94,2.09,2.13,0,1.46-1.32,2.68-2.75,2.68-1.19,0-2.02-.94-2.02-2.09Z"/><path class="cls-6" d="M307.71,17.6c.04-.35,.38-.66,.7-.66h3.07c.31,0,.56,.31,.52,.66l-3.24,23.07c-.03,.35-.38,.66-.7,.66h-3.1c-.31,0-.52-.31-.49-.66l3.24-23.07Z"/><path class="cls-6" d="M325.17,40.67c-.03,.35-.38,.66-.7,.66h-1.36c-.21,0-.45-.1-.56-.59l-.21-1.04c-.52,.49-2.02,1.99-4.5,1.99-2.93,0-5.12-2.86-5.12-6.41,0-4.5,3.1-8.22,7.18-8.22,1.99,0,3.42,1.25,3.9,1.92l.63-1.12c.14-.24,.31-.45,.63-.45h1.36c.31,0,.56,.28,.49,.66l-1.74,12.62Zm-3-7.91c-.1-.59-.8-1.95-2.27-1.95-1.6,0-3.28,1.64-3.28,4.39,0,1.5,.87,2.72,2.3,2.72s2.58-1.57,2.82-2.27l.42-2.89Z"/><path class="cls-6" d="M332.59,17.6c.04-.35,.38-.66,.7-.66h3.1c.31,0,.56,.31,.52,.66l-1.43,10.07c.77-.38,1.71-.63,2.54-.63,3.45,0,5.51,2.82,5.51,6.34,0,4.46-3.17,8.29-7.21,8.29-2.72,0-3.87-2.09-3.87-2.09l-.52,1.15c-.17,.38-.42,.59-.73,.59h-1.36c-.31,0-.56-.31-.49-.66l3.24-23.07Zm3.76,20.32c1.71,0,3.21-1.99,3.21-4.22,0-1.64-.91-2.89-2.37-2.89s-2.33,.8-2.33,.8l-.63,4.01c.1,.8,.66,2.3,2.13,2.3Z"/><path class="cls-6" d="M348.93,17.6c.04-.35,.38-.66,.7-.66h3.07c.31,0,.56,.31,.52,.66l-3.24,23.07c-.04,.35-.38,.66-.7,.66h-3.1c-.31,0-.52-.31-.49-.66l3.24-23.07Z"/><path class="cls-6" d="M362.07,27.05c2.75,0,4.46,1.57,4.46,3.69,0,3.55-5.19,4.74-8.75,4.77-.1,1.43,.56,2.54,2.3,2.54,.84,0,1.88-.42,2.47-.84,.31-.21,.63-.28,.8,0l1.15,1.64c.17,.24,.17,.63-.1,.91-1.22,1.12-2.96,1.92-4.98,1.92-3.35,0-5.54-2.86-5.54-6.2,0-4.36,3.31-8.43,8.19-8.43Zm.52,4.11c0-.49-.38-.87-1.19-.87-1.39,0-2.72,1.32-3.1,2.51,1.67-.04,4.29-.52,4.29-1.64Z"/></g><polyline class="cls-5" points="102.89 86.47 98.04 101.03 107.98 100.67 118.24 82.7 111.82 78.05"/><polygon class="cls-1" points="121.04 67.54 110.45 67.54 105.16 76.71 110.45 85.87 116.47 81.3 126.33 76.71 121.04 67.54"/><polygon class="cls-1" points="121.04 47.63 110.45 47.63 105.16 56.8 110.45 65.96 121.04 65.96 126.33 56.8 121.04 47.63"/><polygon class="cls-5" points="143.29 124.8 122.6 124.9 114.9 136.74 124.07 139.83 138.34 139.19 149.86 136 143.29 124.8"/><polygon class="cls-5" points="160.83 105.88 157.35 104.2 147.25 122.25 154.45 134.21 157.26 131.91 166.96 118.04 160.83 105.88"/><polygon class="cls-5" points="108.07 105.12 104.17 99.13 99.06 114.55 106.2 130.38 110.54 132.93 118.51 122.98 108.07 105.12"/><line class="cls-4" x1="154.83" y1="148" x2="172.16" y2="183.41"/><circle class="cls-3" cx="132.39" cy="105.56" r="31.78"/><polygon class="cls-5" points="142.78 85 122.09 85.1 111.83 103.07 122.26 120.94 142.95 120.84 153.21 102.87 142.78 85"/><g><line class="cls-2" x1="123.3" y1="94.36" x2="141.7" y2="112.76"/><line class="cls-2" x1="141.76" y1="94.34" x2="123.36" y2="112.74"/></g></svg>