<?xml version="1.0" encoding="UTF-8" standalone="no"?>
<svg
   viewBox="0 0 200 200"
   version="1.1"
   id="bdeploy"
   sodipodi:docname="logo.svg"
   inkscape:version="1.1.1 (3bf5ae0d25, 2021-09-20)"
   xmlns:inkscape="http://www.inkscape.org/namespaces/inkscape"
   xmlns:sodipodi="http://sodipodi.sourceforge.net/DTD/sodipodi-0.dtd"
   xmlns="http://www.w3.org/2000/svg"
   xmlns:svg="http://www.w3.org/2000/svg">
  <defs
     id="defs831" />
  <sodipodi:namedview
     id="namedview829"
     pagecolor="#ffffff"
     bordercolor="#666666"
     borderopacity="1.0"
     inkscape:pageshadow="2"
     inkscape:pageopacity="0.0"
     inkscape:pagecheckerboard="0"
     showgrid="false"
     inkscape:zoom="2.0400031"
     inkscape:cx="224.75456"
     inkscape:cy="35.784259"
     inkscape:window-width="2560"
     inkscape:window-height="1351"
     inkscape:window-x="2391"
     inkscape:window-y="-9"
     inkscape:window-maximized="1"
     inkscape:current-layer="bdeploy" />
  <path
     id="logo"
     d="M 177.67179,13.235264 H 22.362914 a 9.0929443,9.0929443 0 0 0 -9.12765,9.092944 V 177.63709 a 9.0929443,9.0929443 0 0 0 9.092944,9.12765 H 177.63709 a 9.0929443,9.0929443 0 0 0 9.12765,-9.09295 V 22.362914 a 9.0929443,9.0929443 0 0 0 -9.09295,-9.12765 z M 69.215872,127.57383 c -2.333972,0.46853 -18.420154,2.75045 -20.736772,1.01515 -2.316619,-1.73529 1.197353,-15.20986 1.284118,-17.62192 a 16.1903,16.1903 0 0 1 7.574561,-13.014708 c -6.030149,1.180001 -11.39221,5.926028 -15.938682,14.081918 a 1.8307359,1.8307359 0 0 1 -1.613824,0.98044 1.8914712,1.8914712 0 0 1 -0.867647,-0.23426 1.8394124,1.8394124 0 0 1 -0.711471,-2.51618 c 3.687501,-6.6375 7.973679,-11.279417 12.763093,-13.882359 -6.203679,0.867647 -13.014711,3.999849 -19.452654,11.366179 a 1.8480889,1.8480889 0 0 1 -1.388236,0.63338 1.8827948,1.8827948 0 0 1 -1.223383,-0.45985 1.8567654,1.8567654 0 0 1 -0.164853,-2.60294 c 14.8628,-17.014566 31.599717,-13.526624 40.89222,-9.492064 a 16.233682,16.233682 0 0 1 -0.381764,31.747214 z m 27.625892,13.08413 a 19.088242,19.088242 0 0 1 -17.951624,-12.52883 17.9603,17.9603 0 0 0 4.18206,-3.835 20.22486,20.22486 0 0 0 3.791619,-14.21207 l 0.05206,-4.69397 -0.347059,-61.030315 a 2.2125008,2.2125008 0 0 1 0.12147,-0.789559 25.578244,25.578244 0 0 1 48.64031,15.834564 2.6810303,2.6810303 0 0 1 -0.45118,0.815588 l -6.66353,8.147209 a 19.513389,19.513389 0 0 1 5.52692,0.399118 19.322507,19.322507 0 0 1 6.27309,35.148395 2.6029421,2.6029421 0 0 1 -0.86765,0.34706 l -27.50442,5.53559 a 18.992801,18.992801 0 0 1 4.15603,11.80868 c 0,0 0.22559,19.05354 -18.966772,19.05354 z m 14.507066,2.19514 a 23.426479,23.426479 0 0 0 3.34912,-2.48147 c 8.24265,-7.375 8.49426,-18.35942 8.50294,-18.78456 a 24.380891,24.380891 0 0 0 -0.80691,-6.77633 28.632363,28.632363 0 0 1 14.08192,-0.43382 13.118828,13.118828 0 0 1 2.74176,0.40779 c 0.36441,6.35118 -0.38176,24.60648 -19.14898,34.38487 z m 14.84544,10.75015 c 16.94516,-10.22088 19.95589,-26.80162 20.20751,-35.76442 a 35.721042,35.721042 0 0 1 9.60486,8.87603 c 0.17353,5.87397 -0.86765,24.51972 -20.12075,33.89898 z m 24.70192,17.87354 -8.83265,-6.40324 c 13.22295,-7.59191 18.2206,-19.22706 20.09472,-28.14648 0.43382,0.86765 0.86764,1.84809 1.27544,2.83721 0,0.0173 4.29485,34.42825 -12.54618,31.71251 z M 143.5559,90.655438 A 14.272799,14.272799 0 0 0 122.6456,75.133227 L 99.973971,102.89794 a 19.088242,19.088242 0 0 1 7.010589,2.69839 l 30.69736,-6.177654 a 14.203387,14.203387 0 0 0 5.87398,-8.763238 z m -24.37222,-19.287801 0.13883,-0.07809 11.3575,-13.882358 A 20.54589,20.54589 0 0 0 91.635879,44.748216 l 0.338383,58.505464 c 0.494559,-0.13015 0.997794,-0.24294 1.509706,-0.32971 l 0.867648,-1.09323 24.233394,-29.925162 a 2.7157362,2.7157362 0 0 1 0.59867,-0.537941 z M 67.630654,105.31343 a 6.5854436,6.5854436 0 0 1 -4.070957,8.37636 6.5854436,6.5854436 0 0 1 -8.376362,-4.07096 6.5854436,6.5854436 0 0 1 4.070957,-8.37636 6.5854436,6.5854436 0 0 1 8.376362,4.07096 z"
     style="fill:#035b9f;stroke-width:0.867647" />
  <text
     xml:space="preserve"
     style="font-size:13.8824px;line-height:1.25;font-family:sans-serif;fill:#ffffff;stroke-width:0.867647"
     x="25.265036"
     y="176.38904"
     id="text3379"><tspan
       sodipodi:role="line"
       id="tspan3377"
       x="25.265036"
       y="176.38904"
       style="stroke-width:0.867647">{{CODE}}</tspan></text>
</svg>
