<?xml version="1.0" encoding="UTF-8" standalone="no"?>
<!-- Created with Inkscape (http://www.inkscape.org/) -->

<svg
   xmlns:dc="http://purl.org/dc/elements/1.1/"
   xmlns:cc="http://creativecommons.org/ns#"
   xmlns:rdf="http://www.w3.org/1999/02/22-rdf-syntax-ns#"
   xmlns:svg="http://www.w3.org/2000/svg"
   xmlns="http://www.w3.org/2000/svg"
   xmlns:sodipodi="http://sodipodi.sourceforge.net/DTD/sodipodi-0.dtd"
   xmlns:inkscape="http://www.inkscape.org/namespaces/inkscape"
   width="48"
   height="48"
   viewBox="0 0 12.7 12.7"
   version="1.1"
   id="svg8"
   inkscape:version="0.92.3 (2405546, 2018-03-11)"
   sodipodi:docname="aix.svg">
  <defs
     id="defs2" />
  <sodipodi:namedview
     id="base"
     pagecolor="#ffffff"
     bordercolor="#666666"
     borderopacity="1.0"
     inkscape:pageopacity="0.0"
     inkscape:pageshadow="2"
     inkscape:zoom="5.6"
     inkscape:cx="-22.959374"
     inkscape:cy="-6.153467"
     inkscape:document-units="mm"
     inkscape:current-layer="layer1"
     showgrid="false"
     units="px"
     inkscape:window-width="1920"
     inkscape:window-height="1016"
     inkscape:window-x="1920"
     inkscape:window-y="1107"
     inkscape:window-maximized="1" />
  <metadata
     id="metadata5">
    <rdf:RDF>
      <cc:Work
         rdf:about="">
        <dc:format>image/svg+xml</dc:format>
        <dc:type
           rdf:resource="http://purl.org/dc/dcmitype/StillImage" />
        <dc:title></dc:title>
      </cc:Work>
    </rdf:RDF>
  </metadata>
  <g
     inkscape:label="Layer 1"
     inkscape:groupmode="layer"
     id="layer1"
     transform="translate(0,-284.3)">
    <path
       style="stroke-width:1.93479002"
       d="M 5.7547571,296.67946 C 4.057568,296.50173 2.5083346,295.6256 1.502521,294.27471 1.0135636,293.61799 0.64772765,292.83891 0.46587192,292.06702 0.3432026,291.54636 0.31195613,291.2584 0.31206246,290.6496 c 9.497e-5,-0.63515 0.0358837,-0.94015 0.17521166,-1.49393 0.4265626,-1.69541 1.60746178,-3.15037 3.18523908,-3.92444 0.5938822,-0.29136 1.1558324,-0.46726 1.8188275,-0.56931 0.4056016,-0.0625 1.3059159,-0.0628 1.7059344,-6.8e-4 0.6858142,0.10655 1.2155623,0.27218 1.8188272,0.56863 0.6243304,0.30681 1.1133057,0.65385 1.5917447,1.12972 0.906755,0.90189 1.481494,2.00891 1.707909,3.28965 0.07732,0.4374 0.09629,1.289 0.03848,1.72781 -0.185276,1.40636 -0.753743,2.57204 -1.731721,3.55101 -0.9058775,0.90678 -1.9789094,1.46006 -3.2872618,1.69495 -0.2414306,0.0434 -0.4177965,0.0553 -0.8905982,0.0605 -0.3242531,0.003 -0.6347079,0.002 -0.6898998,-0.004 z m 1.3797996,-0.35043 c 2.3946667,-0.33268 4.3369893,-2.15328 4.8279823,-4.52542 0.08299,-0.40093 0.11073,-0.69518 0.109989,-1.16655 -10e-4,-0.65861 -0.07963,-1.14902 -0.283811,-1.77077 -0.636159,-1.93722 -2.2909944,-3.41817 -4.2692548,-3.82065 -0.4937855,-0.10044 -0.7824037,-0.12392 -1.3373116,-0.1087 -0.8957264,0.0246 -1.5605512,0.1884 -2.3591138,0.5814 -1.1518403,0.56684 -2.0367663,1.45192 -2.6095146,2.60999 -0.39090704,0.79039 -0.55500261,1.45294 -0.58094808,2.34565 -0.0301852,1.03876 0.14950879,1.85576 0.60971698,2.77215 0.4638781,0.92369 1.2385309,1.75592 2.1557037,2.31596 0.7641634,0.46661 1.6132916,0.73156 2.6201786,0.81758 0.2021137,0.0172 0.8338304,-0.0113 1.1163833,-0.0507 z m -1.2543637,-0.353 c -0.2353414,-0.0204 -0.6258216,-0.0901 -0.882309,-0.15738 -2.9955392,-0.78591 -4.68941507,-3.92525 -3.7076021,-6.87147 0.8005838,-2.40239 3.2182529,-3.91284 5.7439256,-3.58854 1.2964961,0.16648 2.4949917,0.80879 3.3423085,1.79128 1.320583,1.53125 1.672311,3.6401 0.919658,5.51396 -0.811245,2.01974 -2.817091,3.35409 -4.998427,3.32509 -0.1744628,-0.002 -0.3623616,-0.008 -0.417554,-0.0129 z M 3.2586018,291.9165 3.3995402,291.56528 H 4.1120966 4.824654 l 0.1502537,0.3575 0.1502541,0.35749 H 5.524177 c 0.3694089,0 0.3978236,-0.003 0.3829524,-0.0439 -0.00884,-0.0242 -0.328964,-0.75768 -0.7113992,-1.63008 l -0.6953373,-1.58617 -0.3892378,-6.7e-4 -0.3892388,-6.8e-4 -0.67697,1.58454 c -0.3723345,0.87149 -0.6851801,1.60558 -0.6952122,1.6313 -0.017395,0.0446 5.78e-5,0.0465 0.374844,0.0399 l 0.3930863,-0.007 z m 0.5924968,-1.47387 c 0.1159592,-0.29321 0.2199031,-0.55477 0.2309851,-0.58122 0.015351,-0.0367 0.07506,0.0869 0.2505891,0.51874 0.1267419,0.31178 0.2304381,0.57332 0.2304381,0.58122 0,0.008 -0.2076402,0.0144 -0.4614233,0.0144 H 3.6402634 Z m 2.8695181,0.20697 v -1.63068 H 6.3443078 5.9679988 v 1.63068 1.63067 h 0.376309 0.3763089 z m 1.391265,1.08014 c 0.2333866,-0.30278 0.431646,-0.546 0.4405769,-0.54047 0.00893,0.005 0.2015736,0.25288 0.4280954,0.5497 l 0.4118572,0.53967 0.4844106,10e-4 c 0.3811262,6.8e-4 0.4803502,-0.006 0.4653632,-0.0306 -0.01048,-0.0172 -0.308877,-0.39342 -0.6631149,-0.83596 l -0.6440686,-0.8046 0.5982275,-0.77589 c 0.3290249,-0.42675 0.598538,-0.78438 0.598916,-0.79472 3.75e-4,-0.0103 -0.205339,-0.0185 -0.4571531,-0.0181 l -0.4578425,6.9e-4 -0.3746307,0.51275 c -0.2485023,0.34013 -0.3836416,0.5051 -0.4013962,0.49001 -0.014722,-0.0125 -0.1904604,-0.24319 -0.3905313,-0.5126 l -0.3637654,-0.48983 -0.4734581,-10e-4 c -0.3755101,-6.8e-4 -0.4682714,0.005 -0.4483869,0.0303 0.3426381,0.42857 1.1826224,1.53308 1.1751021,1.54516 -0.00566,0.009 -0.2989943,0.38343 -0.6518578,0.83186 -0.3528641,0.44843 -0.6417845,0.82381 -0.6420459,0.83415 -2.561e-4,0.0103 0.2114387,0.0188 0.470444,0.0188 h 0.4709192 l 0.4243393,-0.55052 z"
       id="path885"
       inkscape:connector-curvature="0" />
  </g>
</svg>
