<?xml version="1.0" encoding="UTF-8" standalone="no"?>
<!-- Created with Inkscape (http://www.inkscape.org/) -->

<svg
   xmlns:dc="http://purl.org/dc/elements/1.1/"
   xmlns:cc="http://creativecommons.org/ns#"
   xmlns:rdf="http://www.w3.org/1999/02/22-rdf-syntax-ns#"
   xmlns:svg="http://www.w3.org/2000/svg"
   xmlns="http://www.w3.org/2000/svg"
   xmlns:sodipodi="http://sodipodi.sourceforge.net/DTD/sodipodi-0.dtd"
   xmlns:inkscape="http://www.inkscape.org/namespaces/inkscape"
   width="48"
   height="48"
   viewBox="0 0 12.7 12.7"
   version="1.1"
   id="svg6227"
   inkscape:version="0.92.3 (2405546, 2018-03-11)"
   sodipodi:docname="bee.svg">
  <defs
     id="defs6221" />
  <sodipodi:namedview
     id="base"
     pagecolor="#ffffff"
     bordercolor="#666666"
     borderopacity="1.0"
     inkscape:pageopacity="0.0"
     inkscape:pageshadow="2"
     inkscape:zoom="15.839192"
     inkscape:cx="12.838027"
     inkscape:cy="30.116281"
     inkscape:document-units="mm"
     inkscape:current-layer="svg6227"
     showgrid="false"
     units="px"
     inkscape:window-width="1920"
     inkscape:window-height="1016"
     inkscape:window-x="1920"
     inkscape:window-y="1107"
     inkscape:window-maximized="1" />
  <metadata
     id="metadata6224">
    <rdf:RDF>
      <cc:Work
         rdf:about="">
        <dc:format>image/svg+xml</dc:format>
        <dc:type
           rdf:resource="http://purl.org/dc/dcmitype/StillImage" />
        <dc:title />
      </cc:Work>
    </rdf:RDF>
  </metadata>
  <path
     d="m 8.2031784,5.27597 c 0.2050979,0.3435998 0.3567189,0.72943 0.453277,1.1469899 0.158233,0.0583 0.310624,0.11787 0.4569849,0.1784601 0.0801,-0.0476 0.1638822,-0.0995 0.2213941,-0.1323601 1.4854536,-0.8500798 2.5433706,-1.8615301 2.1375726,-2.55822 -0.202905,-0.34833 -0.68647,-0.48784 -1.30661,-0.43755 -0.5223296,0.0423 -1.1410066,0.22089 -1.7669767,0.53013 -0.108136,0.30196 -0.3026859,0.5710701 -0.5588817,0.78519 0.139015,0.1501701 0.2607077,0.3156302 0.3632448,0.48739 z m 0.5792399,2.29656 c 0,0.60949 -0.09709,1.1913399 -0.2877058,1.7059601 1.0829949,0.0284 1.9117335,-0.16764 2.1651435,-0.5943301 0.342404,-0.5765401 -0.504687,-1.3850199 -1.9506387,-1.99858 0.04866,0.2837699 0.0732,0.5804199 0.073201,0.88695 z M 8.2031784,9.89199 c -0.3827214,0.64122 -1.0323576,1.1942 -1.853556,1.1942 -0.8212,0 -1.4476785,-0.553 -1.8304253,-1.1942 C 4.4519081,9.7793 4.3896618,9.6613001 4.3327722,9.5386999 c -0.4790104,0.0487 -0.9178941,0.0658 -1.2951939,0.0491 C 2.0666014,9.5445001 1.4048249,9.3310199 1.1728533,8.9404201 0.94088311,8.54984 1.1885884,8.06225 1.8370802,7.56256 2.1662855,7.3088899 2.6156677,7.04059 3.1717086,6.78307 L 3.1345296,6.76357 C 1.8857815,6.04897 1.0523201,5.26107 0.6449189,4.6634098 0.23751771,4.0657499 0.1673048,3.5760499 0.38006421,3.2107899 c 0.2127581,-0.36525 0.68667049,-0.54093 1.41254769,-0.49002 0.5947742,0.0417 1.4391764,0.25204 2.411777,0.7198 0.0068,-1.01746 0.9736612,-1.82676 2.1540627,-1.82676 1.1805507,0 2.1299289,0.80949 2.1364188,1.82711 0.972915,-0.468 1.8175946,-0.67845 2.4125166,-0.72015 0.725877,-0.0509 1.199789,0.12482 1.412548,0.49003 0.212758,0.36525 0.14255,0.85496 -0.264854,1.45262 C 11.64768,5.26107 10.814217,6.04897 9.5654693,6.76358 l -0.03718,0.0195 c 0.5560387,0.2575099 1.0054217,0.5258199 1.3346267,0.77949 0.64849,0.49969 0.896201,0.98728 0.664227,1.37786 -0.23197,0.3905899 -0.893753,0.60407 -1.8647245,0.6473698 -0.3721492,0.0166 -0.8042183,6.01e-5 -1.2756092,-0.047 -0.05547,0.1218602 -0.116699,0.2392 -0.1836208,0.35131 z M 3.9167903,7.57253 c 0,-0.30749 0.027611,-0.6050401 0.080318,-0.88964 C 2.5472929,7.2967699 1.6972281,8.1067701 2.0401293,8.68416 2.2948846,9.1131099 3.1310953,9.30905 4.2225449,9.27803 4.0252502,8.7635501 3.9167887,8.18187 3.9167887,7.57253 Z M 4.5191971,5.27597 C 4.620057,5.10701 4.7378485,4.9441798 4.8716533,4.7959701 4.6107813,4.5804799 4.4120149,4.3083999 4.3017511,4.0036699 c -0.6261666,-0.30942 -1.2450656,-0.48803 -1.767561,-0.53042 -0.6201399,-0.0503 -1.1037051,0.0892 -1.3066108,0.43754 -0.40579658,0.6966899 0.6521194,1.7081499 2.137573,2.55823 0.057514,0.0328 0.1412923,0.0847 0.2213946,0.1323599 C 3.736136,6.5393798 3.892025,6.4786298 4.0540188,6.41906 4.1567716,6.00299 4.3146985,5.6184998 4.5192016,5.27593 Z m -0.04626,2.4573399 c 0,0.026001 2.397e-4,0.0521 7.143e-4,0.0779 0.5279184,-0.43687 1.12014,-0.7181199 1.8671784,-0.7181199 0.7491756,0 1.3544986,0.27668 1.8848858,0.7123401 3.969e-4,-0.024 6.35e-4,-0.0481 6.35e-4,-0.0722 0,-0.2553099 -0.022752,-0.5030599 -0.06535,-0.73881 -0.4957688,-0.37137 -1.1220416,-0.59074 -1.8039191,-0.59074 -0.6914134,0 -1.3229746,0.2261298 -1.8216983,0.60725 -0.040714,0.23081 -0.062409,0.4729501 -0.062409,0.7223101 z m 0.2742737,1.46103 c 0.3593893,-0.21843 0.7598293,-0.37347 1.1913806,-0.4293 0.1348446,-0.017399 0.2572798,0 0.3968687,0 0.5884653,0 1.1406624,0.1557301 1.6152579,0.43257 C 8.028034,9.00938 8.0908723,8.80633 8.1369133,8.59194 7.6140222,8.30067 6.9997211,8.1328199 6.3408269,8.1328199 c -0.652711,0 -1.2600009,0.16471 -1.7802186,0.45095 0.045934,0.21619 0.1089197,0.42086 0.1866054,0.61057 z M 6.3496277,10.5351 c 0.4532096,0 0.8690465,-0.23913 1.1934703,-0.63809 C 7.1699583,9.76494 6.7641467,9.6922701 6.3354556,9.6922701 c -0.4201727,0 -0.8186254,0.0698 -1.1856027,0.1969299 0.3253364,0.40366 0.7436236,0.6459 1.1997703,0.6459 z m 0,-5.6265802 c -0.5772745,0 -1.0939148,0.3951103 -1.438252,1.0135802 0.426847,-0.26479 0.9203428,-0.41465 1.4456672,-0.41465 l 7.4e-6,-7.01e-5 c 0.5253583,0 1.0137683,0.1538901 1.4351775,0.42247 C 7.4479129,5.3069299 6.9293676,4.9085198 6.3496277,4.9085198 Z M 4.6281014,3.2938599 c 0,0.16163 0.03888,0.3087 0.1013923,0.41821 0.044928,0.0248 0.090064,0.0503 0.1353918,0.0762 0.063459,0.0364 0.1197007,0.0753 0.1754384,0.11417 0.1798277,-0.0347 0.3116923,-0.29415 0.3116923,-0.60856 0,-0.3381 -0.1524891,-0.61254 -0.3531335,-0.61254 -0.2006447,0 -0.3707929,0.27444 -0.3707929,0.61254 z m 2.7191261,0 c 0,0.31475 0.132153,0.57432 0.312275,0.60868 0.055783,-0.0389 0.1120699,-0.0779 0.1755982,-0.11432 0.044973,-0.0257 0.089753,-0.0509 0.134312,-0.0756 0.062719,-0.10959 0.1017325,-0.25688 0.1017325,-0.41881 0,-0.3381 -0.1701442,-0.61254 -0.3707931,-0.61254 -0.2006518,0 -0.353132,0.27444 -0.353132,0.61254 z"
     id="path32"
     inkscape:connector-curvature="0"
     style="stroke-width:1.95762718" />
</svg>
