<?xml version="1.0" encoding="UTF-8" standalone="no"?>
<svg
   height="24px"
   viewBox="0 0 24 24"
   width="24px"
   version="1.1"
   id="svg835"
   sodipodi:docname="global-pin.svg"
   inkscape:version="1.1.1 (3bf5ae0d25, 2021-09-20)"
   xmlns:inkscape="http://www.inkscape.org/namespaces/inkscape"
   xmlns:sodipodi="http://sodipodi.sourceforge.net/DTD/sodipodi-0.dtd"
   xmlns="http://www.w3.org/2000/svg"
   xmlns:svg="http://www.w3.org/2000/svg">
  <path
     d="M0 0h24v24H0V0z"
     fill="none"
     id="path831" />
  <g
     id="g1026"
     transform="matrix(0.47268987,0,0,0.47268987,13.4852,0.36553054)" >
    <path
       id="path1024"
       d="m 14,4 v 5 c 0,1.12 0.37,2.16 1,3 H 9 c 0.65,-0.86 1,-1.9 1,-3 V 4 h 4 M 17,2 H 7 C 6.45,2 6,2.45 6,3 6,3.55 6.45,4 7,4 7,4 7,4 7,4 h 1 v 5 c 0,1.66 -1.34,3 -3,3 v 2 h 5.97 v 7 l 1,1 1,-1 V 14 H 19 v -2 c 0,0 0,0 0,0 -1.66,0 -3,-1.34 -3,-3 V 4 h 1 c 0,0 0,0 0,0 0.55,0 1,-0.45 1,-1 0,-0.55 -0.45,-1 -1,-1 z m -4.63129,22.488881 c 0.08462,0.698132 0.169244,1.396264 0.169244,2.115552 0,4.400348 -1.692441,8.398742 -4.4426589,11.402825 -0.5500435,-1.713597 -2.115552,-2.940617 -4.0195488,-2.940617 h -2.115552 v -6.346656 c 0,-1.163554 -0.9519984,-2.115552 -2.11555198,-2.115552 H -12.84867 v -4.231104 h 4.2311043 c 1.1635536,0 2.115552,-0.951998 2.115552,-2.115552 v -4.231104 h 4.231104 c 2.32710722,0 4.231104,-1.903997 4.231104,-4.231104 V 6.422067 c -2.00977438,-0.6346656 -4.1253264,-0.9731539 -6.346656,-0.9731539 -11.6778473,0 -21.1555203,9.4776729 -21.1555203,21.1555199 0,11.677847 9.477673,21.15552 21.1555203,21.15552 11.6778471,0 21.1555197,-9.477673 21.1555197,-21.15552 0,-0.719288 -0.04231,-1.41742 -0.105777,-2.115552 z M -6.5020137,43.38076 C -14.858444,42.34414 -21.310878,35.235885 -21.310878,26.604433 c 0,-1.311642 0.169244,-2.559818 0.444266,-3.786838 l 10.133494,10.133494 v 2.115552 c 0,2.327107 1.9039971,4.231104 4.2311043,4.231104 z" />
  </g>
</svg>
