<?xml version="1.0" encoding="UTF-8" standalone="no"?>
<svg
   width="48"
   height="48"
   viewBox="0 0 48 48"
   version="1.1"
   id="svg3472"
   sodipodi:docname="linux_aarch64.svg"
   inkscape:version="1.4 (e7c3feb100, 2024-10-09)"
   xmlns:inkscape="http://www.inkscape.org/namespaces/inkscape"
   xmlns:sodipodi="http://sodipodi.sourceforge.net/DTD/sodipodi-0.dtd"
   xmlns="http://www.w3.org/2000/svg"
   xmlns:svg="http://www.w3.org/2000/svg"
   xmlns:rdf="http://www.w3.org/1999/02/22-rdf-syntax-ns#"
   xmlns:cc="http://creativecommons.org/ns#"
   xmlns:dc="http://purl.org/dc/elements/1.1/">
  <metadata
     id="metadata3478">
    <rdf:RDF>
      <cc:Work
         rdf:about="">
        <dc:format>image/svg+xml</dc:format>
        <dc:type
           rdf:resource="http://purl.org/dc/dcmitype/StillImage" />
      </cc:Work>
    </rdf:RDF>
  </metadata>
  <defs
     id="defs3476" />
  <sodipodi:namedview
     pagecolor="#ffffff"
     bordercolor="#666666"
     borderopacity="1"
     objecttolerance="10"
     gridtolerance="10"
     guidetolerance="10"
     inkscape:pageopacity="0"
     inkscape:pageshadow="2"
     inkscape:window-width="2560"
     inkscape:window-height="1371"
     id="namedview3474"
     showgrid="false"
     inkscape:zoom="9.8333333"
     inkscape:cx="11.898305"
     inkscape:cy="13.423729"
     inkscape:window-x="0"
     inkscape:window-y="0"
     inkscape:window-maximized="1"
     inkscape:current-layer="svg3472"
     inkscape:showpageshadow="2"
     inkscape:pagecheckerboard="0"
     inkscape:deskcolor="#d1d1d1" />
  <path
     d="m 40.798398,37.799313 c -1.076695,-0.873102 -0.657762,-2.801364 -1.775567,-3.752771 1.082567,-6.587415 -1.951755,-12.393737 -5.56945,-16.115186 -3.036279,-3.122416 -2.057466,-6.160653 -2.057466,-8.7897459 0,-4.2010678 -1.724669,-8.6331355 -6.949576,-8.6331355 -5.58511,0 -7.115975,4.6591525 -7.170788,7.3176101 -0.133119,6.3857793 1.290076,8.0458473 -2.447034,12.6932543 -4.39683,5.467652 -5.0448051,10.921601 -4.052288,13.814974 -0.463958,0.540305 -1.0903984,1.139339 -2.2610594,1.634619 -3.234,1.409491 -0.8633136,3.768432 -1.7579492,5.442203 -0.2544915,0.475704 -0.3758644,0.972941 -0.3758644,1.448644 0,1.468221 1.1667458,2.738721 3.2868559,2.548831 2.8600931,-0.254492 5.4989751,1.771652 7.2060251,1.771652 1.507373,0 2.744594,-0.85744 3.320136,-2.03789 2.695652,-0.663635 6.023619,-0.579457 8.717314,0.1155 0.483533,1.352721 1.795144,2.233653 3.253576,2.233653 3.19289,0 3.807585,-3.619653 7.470305,-4.845127 1.319441,-0.440466 1.983076,-1.720754 1.983076,-2.912949 0,-0.763475 -0.27211,-1.489755 -0.820246,-1.934136 z M 22.891983,17.312745 c -0.624483,0 -1.141296,-0.505067 -1.957627,-1.111932 -1.033627,-0.76739 -2.084873,-1.209813 -2.073127,-2.016356 0,-0.554008 0.741941,-0.724322 1.701178,-1.333144 1.029712,-0.65189 1.431025,-1.313568 2.445076,-1.313568 1.037542,0 1.350763,0.524644 2.760254,1.133466 1.386,0.600992 2.351111,0.835907 2.351111,1.513246 0,0.694958 -1.450602,1.192195 -2.266933,1.699221 -1.200025,0.739983 -1.816678,1.429067 -2.959932,1.429067 z M 26.151432,7.1037203 c 1.726627,0.2760254 1.920432,3.3103467 1.094314,4.8040167 L 26.550788,11.623881 C 26.910992,10.560889 26.905119,8.8107712 25.69922,8.6991864 24.933788,8.6287114 24.440466,9.6388474 24.334754,10.504118 24.035237,10.37883 23.708314,10.288779 23.310915,10.2555 23.432288,8.4486101 24.599034,6.8551017 26.151432,7.1037203 Z m -6.661805,0.6479746 c 1.323356,-0.3288814 2.104449,1.2098136 2.110322,2.8091941 l -0.606864,0.37195 c -0.08222,-0.671467 -0.381737,-1.7559916 -1.133466,-1.5249916 -0.804585,0.250576 -0.673424,2.1201096 -0.225127,2.5038046 l -0.599034,0.332797 C 18.213254,10.860406 18.215212,8.0688305 19.489627,7.7516949 Z M 15.349246,45.422313 C 11.506424,43.674152 10.200687,44.07155 9.4665763,44.07155 c -1.5210762,0 -2.0183135,-1.133466 -1.4466864,-2.206245 0.4854915,-0.910297 0.3347542,-1.863661 0.215339,-2.629094 -0.184017,-1.172618 -0.2172966,-1.554355 0.9357457,-2.059423 1.5954664,-0.677339 2.3041274,-1.548483 2.8326864,-2.200373 1.483881,-1.834297 2.981466,1.051246 4.208898,3.62161 0.796755,1.665941 2.364814,2.509678 2.848348,4.35572 0.444381,1.705094 -1.389915,3.525687 -3.711661,2.468568 z M 29.027187,41.75372 c -2.709356,1.317483 -6.160653,1.92239 -8.742763,0.58533 -0.381737,-1.102144 -0.992517,-1.81472 -1.65028,-2.531211 1.055161,-0.277983 1.838212,-1.593509 0.900509,-2.914907 -1.000348,-1.411449 -3.044111,-2.396136 -5.109407,-3.99356 -1.932178,-1.493669 -2.542958,-5.175966 0.08809,-9.290898 -1.282246,3.645102 -0.532475,7.00439 0.111585,7.965585 0.133118,-1.934136 0.285813,-5.16422 2.92861,-9.034449 1.333144,-1.953712 1.35272,-4.533865 1.382085,-6.146949 l 1.213729,0.830033 c 0.892677,0.659721 1.640491,1.386 2.713271,1.386 1.585678,0 2.462695,-0.912254 3.684254,-1.669855 0.477661,-0.293645 1.200025,-0.591204 1.80689,-1.004263 1.017966,4.847085 5.234695,10.676898 5.471568,13.997034 0.980771,-2.020271 -0.277983,-6.879102 -0.277983,-6.879102 1.648322,2.515551 1.779483,4.61217 1.851915,7.184492 1.153042,0.471788 2.390262,1.701178 2.503805,3.320135 l -0.479619,-0.05481 c -0.246661,-1.79906 -5.103534,-4.441856 -5.540085,-1.055161 -2.329576,0.35433 -1.481923,4.044457 -1.951754,6.436678 -0.215339,1.094313 -0.614695,1.959584 -0.904423,2.869881 z m 9.486661,-0.08026 c -1.928263,0.743899 -3.230085,2.323704 -4.124721,3.304475 -1.722712,1.891068 -4.00139,0.984686 -4.244135,-0.785009 -0.25645,-1.891067 0.704745,-2.922737 1.119762,-5.038932 0.377822,-1.932178 -0.04502,-4.905813 0.843738,-5.222949 0.5775,3.43172 4.044457,1.988949 4.835339,1.053203 1.286161,0 1.39383,0.434594 1.681601,1.638534 0.180102,0.753687 0.428721,1.387958 1.131509,2.133814 0.818288,0.875059 0.567712,2.217991 -1.243093,2.916864 z M 22.852831,16.212559 c -1.274416,0 -2.22778,-0.847653 -3.003,-1.505415 -0.397399,-0.334755 0.09788,-0.953365 0.495279,-0.616653 0.757602,0.642102 1.521077,1.321398 2.507721,1.321398 1.188279,0 2.23561,-1.016008 3.654889,-1.575889 0.483534,-0.18989 0.75956,0.557923 0.279941,0.747813 -1.378169,0.542263 -2.484229,1.628746 -3.93483,1.628746 z"
     id="path3470"
     inkscape:connector-curvature="0"
     style="stroke-width:1.95762718" />
  <text
     xml:space="preserve"
     style="font-size:14.0895px;text-align:start;letter-spacing:-0.951044px;writing-mode:lr-tb;direction:ltr;text-anchor:start;fill:#000000;stroke:#ffffff;stroke-width:4.86089;stroke-dasharray:none;paint-order:stroke markers fill"
     x="0.40074462"
     y="45.319614"
     id="text1"><tspan
       sodipodi:role="line"
       id="tspan1"
       x="0.40074462"
       y="45.319614"
       style="font-size:14.0895px;letter-spacing:-0.951044px;stroke:#ffffff;stroke-width:4.86089;stroke-dasharray:none;paint-order:stroke markers fill">aarch64</tspan></text>
</svg>
