<?xml version="1.0" encoding="UTF-8" standalone="no"?>
<svg
   viewBox="0 0 200 200"
   version="1.1"
   id="bdeploy"
   xmlns="http://www.w3.org/2000/svg"
   xmlns:svg="http://www.w3.org/2000/svg">
 <path
     id="logo"
     d="m 114.19922,14.984375 c -13.21409,-0.726252 -25.292766,7.44227 -29.539064,19.976563 -0.101491,0.291719 -0.14914,0.59945 -0.140625,0.908203 l 0.400391,70.341799 -0.06055,5.4082 c 0.651279,5.81513 -0.908348,11.66251 -4.369141,16.38086 -1.362411,1.71942 -2.989484,3.21135 -4.820312,4.41992 3.177294,8.68236 11.444003,14.45181 20.689453,14.43946 22.109555,-0.007 21.851565,-21.95899 21.851565,-21.95899 -0.0127,-4.9482 -1.7015,-9.74613 -4.79102,-13.61133 l 31.69922,-6.3789 c 0.35476,-0.072 0.69355,-0.20769 1,-0.40039 C 162.83062,93.815278 158.26959,68.254549 138.89062,64 c -2.09095,-0.455992 -4.23628,-0.611203 -6.37109,-0.460938 l 7.67969,-9.388671 c 0.22736,-0.280294 0.40385,-0.598251 0.52148,-0.939453 5.72982,-18.340425 -7.33579,-37.172448 -26.52148,-38.226563 z m -4.0957,6.148437 c 16.53658,-1.689905 29.62215,13.738338 25.25586,29.777344 l -13.08985,16 L 122.10938,67 c -0.25927,0.171029 -0.49163,0.379696 -0.68946,0.619141 l -27.929686,34.490239 -1,1.25976 C 91.900234,103.46914 91.32,103.6 90.75,103.75 L 90.359375,36.320312 c 3.171905,-8.39474 10.816645,-14.275189 19.744145,-15.1875 z m 22.51171,48.181641 c 11.09315,-1.028455 19.97891,9.035755 17.58399,19.916016 -0.87626,4.11076 -3.30012,7.726975 -6.76953,10.099609 l -35.37891,7.119142 c -2.46082,-1.56142 -5.20735,-2.61834 -8.080077,-3.10938 L 126.09961,71.339844 c 2.00645,-1.123087 4.22606,-1.813058 6.51562,-2.025391 z M 46.916016,91.375 c -9.091011,0.170771 -19.41125,3.725234 -29.046875,14.75586 -0.767538,0.88401 -0.682254,2.2207 0.191406,3 0.391779,0.33914 0.891985,0.52689 1.410156,0.5293 0.613521,-0.002 1.196492,-0.26797 1.599609,-0.73047 7.42,-8.49 15.269922,-12.099612 22.419922,-13.099612 -5.52,3 -10.460937,8.350002 -14.710937,16.000002 -0.581191,1.02664 -0.212496,2.33024 0.820312,2.90039 0.306842,0.16887 0.649855,0.26132 1,0.26953 0.782075,-0.003 1.498412,-0.43808 1.861329,-1.13086 5.24,-9.4 11.41914,-14.868515 18.36914,-16.228515 -5.199822,3.260035 -8.464135,8.868515 -8.730469,14.999995 -0.1,2.78 -4.150468,18.3086 -1.480468,20.3086 2.67,2 21.21039,-0.62992 23.90039,-1.16992 h 0.04102 c 8.651647,-1.74194 14.909669,-9.29259 15.015655,-18.11722 C 79.682188,104.83745 73.607316,97.138676 65,95.189453 60.314375,93.155078 53.986802,91.242178 46.916016,91.375 Z m 10.041015,9.77734 c 2.662791,0.51318 4.849496,2.40803 5.736328,4.97071 1.370431,3.96145 -0.729972,8.2838 -4.691406,9.65429 -3.961453,1.37044 -8.283808,-0.72997 -9.654297,-4.6914 -1.370438,-3.96146 0.729967,-8.28381 4.691406,-9.6543 1.258858,-0.43527 2.610096,-0.5316 3.917969,-0.2793 z m 76.937499,14.6543 c -2.73665,0.0842 -5.45218,0.50872 -8.08398,1.26367 0.67455,2.54705 0.98751,5.17632 0.92968,7.81055 -0.01,0.49 -0.30078,13.14844 -9.80078,21.64844 -1.19888,1.06656 -2.49044,2.02412 -3.85937,2.86132 l 10.05078,7.2793 c 21.63,-11.27 22.48836,-32.31086 22.06836,-39.63086 -1.03388,-0.26741 -2.09318,-0.42454 -3.16016,-0.46875 -2.67266,-0.59136 -5.40852,-0.84789 -8.14453,-0.76367 z m 19.58594,4.75391 c -0.29,10.33 -3.76102,29.43875 -23.29102,41.21875 l 11.16993,8.08008 c 22.19,-10.81001 23.3914,-32.30032 23.1914,-39.07032 -3.02924,-4.06168 -6.78222,-7.52928 -11.07031,-10.22851 z m 18.16015,22 c -2.16,10.28 -7.92015,23.68945 -23.16015,32.43945 l 10.17969,7.38086 c 19.39822,3.11466 14.44922,-36.53079 14.44922,-36.55078 -0.47001,-1.14 -0.96876,-2.26953 -1.46876,-3.26953 z" style="fill:#666666" />
</svg>
