<?xml version="1.0" encoding="UTF-8" standalone="no"?>
<svg
   viewBox="0 0 200 200"
   version="1.1"
   id="bdeploy"
   xmlns="http://www.w3.org/2000/svg"
   xmlns:svg="http://www.w3.org/2000/svg">
  <path
     id="logo"
     d="M 178.32993,12.500067 H 21.705061 a 9.1699929,9.1699929 0 0 0 -9.204993,9.169994 V 178.29493 a 9.1699929,9.1699929 0 0 0 9.169994,9.205 H 178.29493 a 9.1699929,9.1699929 0 0 0 9.205,-9.17 V 21.70506 a 9.1699929,9.1699929 0 0 0 -9.17,-9.204993 z M 68.955025,127.80747 c -2.353749,0.47251 -18.576236,2.77375 -20.912484,1.02375 -2.336248,-1.74999 1.207499,-15.33874 1.294999,-17.77123 A 16.327488,16.327488 0 0 1 56.976283,97.935001 C 50.895039,99.125 45.487542,103.91124 40.902546,112.13623 a 1.8462486,1.8462486 0 0 1 -1.627498,0.98876 1.9074986,1.9074986 0 0 1 -0.874999,-0.23626 1.8549986,1.8549986 0 0 1 -0.7175,-2.53749 c 3.718747,-6.69375 8.041244,-11.374989 12.87124,-13.999988 -6.256246,0.874999 -13.12499,4.033738 -19.617484,11.462488 a 1.8637485,1.8637485 0 0 1 -1.4,0.63875 1.8987486,1.8987486 0 0 1 -1.233749,-0.46375 1.8724985,1.8724985 0 0 1 -0.16625,-2.625 C 43.125044,88.205009 60.003782,91.722506 69.375024,95.791253 a 16.371237,16.371237 0 0 1 -0.385,32.016217 z m 27.859978,13.19499 a 19.249985,19.249985 0 0 1 -18.103736,-12.63499 18.112486,18.112486 0 0 0 4.217497,-3.8675 20.396234,20.396234 0 0 0 3.823747,-14.33249 l 0.0525,-4.73374 -0.35,-61.547447 a 2.2312483,2.2312483 0 0 1 0.1225,-0.796249 25.79498,25.79498 0 0 1 49.052459,15.968737 2.703748,2.703748 0 0 1 -0.455,0.822499 l -6.72,8.216244 a 19.678735,19.678735 0 0 1 5.57374,0.4025 19.486235,19.486235 0 0 1 6.32625,35.446216 2.624998,2.624998 0 0 1 -0.875,0.35 l -27.73748,5.5825 a 19.153735,19.153735 0 0 1 4.19125,11.90874 c 0,0 0.22751,19.21498 -19.127477,19.21498 z m 14.629987,2.21375 a 23.624981,23.624981 0 0 0 3.37749,-2.50249 c 8.3125,-7.4375 8.56625,-18.51499 8.575,-18.94374 a 24.58748,24.58748 0 0 0 -0.81375,-6.83375 28.874978,28.874978 0 0 1 14.20123,-0.4375 13.22999,13.22999 0 0 1 2.765,0.41125 c 0.3675,6.40499 -0.385,24.81498 -19.31123,34.67623 z m 14.97123,10.84124 c 17.08874,-10.30749 20.12499,-27.02872 20.37873,-36.06747 a 36.023722,36.023722 0 0 1 9.68625,8.95124 c 0.175,5.92375 -0.875,24.72748 -20.29124,34.18622 z m 24.91123,18.02499 -8.90749,-6.4575 c 13.33499,-7.65624 18.37498,-19.38998 20.26498,-28.38497 0.4375,0.875 0.875,1.86374 1.28626,2.86124 0,0.0175 4.33124,34.71997 -12.65249,31.98123 z M 143.92496,90.576257 A 14.393739,14.393739 0 0 0 122.83747,74.922519 L 99.97375,102.92249 a 19.249985,19.249985 0 0 1 7.06999,2.72125 l 30.95748,-6.22999 a 14.323739,14.323739 0 0 0 5.92374,-8.837493 z m -24.57873,-19.451235 0.14,-0.07875 11.45374,-13.999989 A 20.719983,20.719983 0 0 0 91.565007,44.280043 l 0.34125,59.001197 c 0.49875,-0.13125 1.006249,-0.245 1.522498,-0.3325 l 0.875,-1.1025 24.438725,-30.178719 a 2.7387479,2.7387479 0 0 1 0.60375,-0.542499 z M 67.356375,105.35845 a 6.641245,6.641245 0 0 1 -4.105453,8.44733 6.641245,6.641245 0 0 1 -8.447339,-4.10545 6.641245,6.641245 0 0 1 4.105452,-8.44734 6.641245,6.641245 0 0 1 8.44734,4.10546 z" />
</svg>
