<?xml version="1.0" encoding="UTF-8" standalone="no"?>
<svg
   viewBox="0 0 200 200"
   version="1.1"
   id="bdeploy"
   xmlns="http://www.w3.org/2000/svg"
   xmlns:svg="http://www.w3.org/2000/svg">
  <path
     id="logo"
     d="m 189.52,0 h -179 A 10.48,10.48 0 0 0 0,10.48 v 179 A 10.48,10.48 0 0 0 10.48,200 h 179 A 10.48,10.48 0 0 0 200,189.52 v -179 A 10.48,10.48 0 0 0 189.52,0 Z m -125,131.78 c -2.69,0.54 -21.23,3.17 -23.9,1.17 -2.67,-2 1.38,-17.53 1.48,-20.31 a 18.66,18.66 0 0 1 8.73,-15 C 43.88,99 37.7,104.47 32.46,113.87 a 2.11,2.11 0 0 1 -1.86,1.13 2.18,2.18 0 0 1 -1,-0.27 2.12,2.12 0 0 1 -0.82,-2.9 c 4.25,-7.65 9.19,-13 14.71,-16 -7.15,1 -15,4.61 -22.42,13.1 a 2.13,2.13 0 0 1 -1.6,0.73 2.17,2.17 0 0 1 -1.41,-0.53 2.14,2.14 0 0 1 -0.19,-3 C 35,86.52 54.29,90.54 65,95.19 a 18.71,18.71 0 0 1 -0.44,36.59 z m 31.84,15.08 A 22,22 0 0 1 75.67,132.42 20.7,20.7 0 0 0 80.49,128 23.31,23.31 0 0 0 84.86,111.62 l 0.06,-5.41 -0.4,-70.34 a 2.55,2.55 0 0 1 0.14,-0.91 29.48,29.48 0 0 1 56.06,18.25 3.09,3.09 0 0 1 -0.52,0.94 l -7.68,9.39 a 22.49,22.49 0 0 1 6.37,0.46 22.27,22.27 0 0 1 7.23,40.51 3,3 0 0 1 -1,0.4 l -31.7,6.38 a 21.89,21.89 0 0 1 4.79,13.61 c 0,0 0.26,21.96 -21.86,21.96 z m 16.72,2.53 a 27,27 0 0 0 3.86,-2.86 c 9.5,-8.5 9.79,-21.16 9.8,-21.65 a 28.1,28.1 0 0 0 -0.93,-7.81 33,33 0 0 1 16.23,-0.5 15.12,15.12 0 0 1 3.16,0.47 c 0.42,7.32 -0.44,28.36 -22.07,39.63 z m 17.11,12.39 c 19.53,-11.78 23,-30.89 23.29,-41.22 a 41.17,41.17 0 0 1 11.07,10.23 c 0.2,6.77 -1,28.26 -23.19,39.07 z m 28.47,20.6 -10.18,-7.38 c 15.24,-8.75 21,-22.16 23.16,-32.44 0.5,1 1,2.13 1.47,3.27 0,0.02 4.95,39.68 -14.46,36.55 z M 150.2,89.23 A 16.45,16.45 0 0 0 126.1,71.34 l -26.13,32 a 22,22 0 0 1 8.08,3.11 l 35.38,-7.12 a 16.37,16.37 0 0 0 6.77,-10.1 z M 122.11,67 l 0.16,-0.09 13.09,-16 a 23.68,23.68 0 0 0 -45,-14.59 l 0.39,67.43 c 0.57,-0.15 1.15,-0.28 1.74,-0.38 l 1,-1.26 27.93,-34.49 A 3.13,3.13 0 0 1 122.11,67 Z m -59.41703,39.12395 a 7.5900002,7.5900002 0 0 1 -4.691949,9.65411 7.5900002,7.5900002 0 0 1 -9.654109,-4.69195 7.5900002,7.5900002 0 0 1 4.691949,-9.65411 7.5900002,7.5900002 0 0 1 9.654109,4.69195 z"/>
</svg>
