<?xml version="1.0" encoding="iso-8859-1"?>
<!-- Generator: Adobe Illustrator 26.5.0, SVG Export Plug-In . SVG Version: 6.00 Build 0)  -->
<svg version="1.1" xmlns="http://www.w3.org/2000/svg" xmlns:xlink="http://www.w3.org/1999/xlink" x="0px" y="0px"
	 viewBox="0 0 192 192" style="enable-background:new 0 0 192 192;" xml:space="preserve">
<symbol  id="material_x5F_product_x5F_icon_x5F_border" viewBox="0 -192 192 192">
	<rect y="-192" style="fill:none;" width="192" height="192"/>
</symbol>
<symbol  id="material_x5F_product_x5F_icon_x5F_grid" viewBox="0 -192 192 192">
	<g>
		<defs>
			<rect id="SVGID_1_" x="0" y="-192" width="192" height="192"/>
		</defs>
		<clipPath id="SVGID_00000140705493155785245870000014015139584388983428_">
			<use xlink:href="#SVGID_1_"  style="overflow:visible;"/>
		</clipPath>
		<g style="clip-path:url(#SVGID_00000140705493155785245870000014015139584388983428_);">
			<g>
				<line style="fill:none;stroke:#000000;stroke-width:0.25;stroke-miterlimit:10;" x1="4" y1="-192" x2="4" y2="0"/>
				<line style="fill:none;stroke:#000000;stroke-width:0.25;stroke-miterlimit:10;" x1="8" y1="-192" x2="8" y2="0"/>
				<line style="fill:none;stroke:#000000;stroke-width:0.25;stroke-miterlimit:10;" x1="12" y1="-192" x2="12" y2="0"/>
				<line style="fill:none;stroke:#000000;stroke-width:0.25;stroke-miterlimit:10;" x1="16" y1="-192" x2="16" y2="0"/>
				<line style="fill:none;stroke:#000000;stroke-width:0.25;stroke-miterlimit:10;" x1="20" y1="-192" x2="20" y2="0"/>
				<line style="fill:none;stroke:#000000;stroke-width:0.25;stroke-miterlimit:10;" x1="24" y1="-192" x2="24" y2="0"/>
				<line style="fill:none;stroke:#000000;stroke-width:0.25;stroke-miterlimit:10;" x1="28" y1="-192" x2="28" y2="0"/>
				<line style="fill:none;stroke:#000000;stroke-width:0.25;stroke-miterlimit:10;" x1="32" y1="-192" x2="32" y2="0"/>
				<line style="fill:none;stroke:#000000;stroke-width:0.25;stroke-miterlimit:10;" x1="36" y1="-192" x2="36" y2="0"/>
				<line style="fill:none;stroke:#000000;stroke-width:0.25;stroke-miterlimit:10;" x1="40" y1="-192" x2="40" y2="0"/>
				<line style="fill:none;stroke:#000000;stroke-width:0.25;stroke-miterlimit:10;" x1="44" y1="-192" x2="44" y2="0"/>
				<line style="fill:none;stroke:#000000;stroke-width:0.25;stroke-miterlimit:10;" x1="48" y1="-192" x2="48" y2="0"/>
				<line style="fill:none;stroke:#000000;stroke-width:0.25;stroke-miterlimit:10;" x1="52" y1="-192" x2="52" y2="0"/>
				<line style="fill:none;stroke:#000000;stroke-width:0.25;stroke-miterlimit:10;" x1="56" y1="-192" x2="56" y2="0"/>
				<line style="fill:none;stroke:#000000;stroke-width:0.25;stroke-miterlimit:10;" x1="60" y1="-192" x2="60" y2="0"/>
				<line style="fill:none;stroke:#000000;stroke-width:0.25;stroke-miterlimit:10;" x1="64" y1="-192" x2="64" y2="0"/>
				<line style="fill:none;stroke:#000000;stroke-width:0.25;stroke-miterlimit:10;" x1="68" y1="-192" x2="68" y2="0"/>
				<line style="fill:none;stroke:#000000;stroke-width:0.25;stroke-miterlimit:10;" x1="72" y1="-192" x2="72" y2="0"/>
				<line style="fill:none;stroke:#000000;stroke-width:0.25;stroke-miterlimit:10;" x1="76" y1="-192" x2="76" y2="0"/>
				<line style="fill:none;stroke:#000000;stroke-width:0.25;stroke-miterlimit:10;" x1="80" y1="-192" x2="80" y2="0"/>
				<line style="fill:none;stroke:#000000;stroke-width:0.25;stroke-miterlimit:10;" x1="84" y1="-192" x2="84" y2="0"/>
				<line style="fill:none;stroke:#000000;stroke-width:0.25;stroke-miterlimit:10;" x1="88" y1="-192" x2="88" y2="0"/>
				<line style="fill:none;stroke:#000000;stroke-width:0.25;stroke-miterlimit:10;" x1="92" y1="-192" x2="92" y2="0"/>
				<line style="fill:none;stroke:#000000;stroke-width:0.25;stroke-miterlimit:10;" x1="96" y1="-192" x2="96" y2="0"/>
				<line style="fill:none;stroke:#000000;stroke-width:0.25;stroke-miterlimit:10;" x1="100" y1="-192" x2="100" y2="0"/>
				<line style="fill:none;stroke:#000000;stroke-width:0.25;stroke-miterlimit:10;" x1="104" y1="-192" x2="104" y2="0"/>
				<line style="fill:none;stroke:#000000;stroke-width:0.25;stroke-miterlimit:10;" x1="108" y1="-192" x2="108" y2="0"/>
				<line style="fill:none;stroke:#000000;stroke-width:0.25;stroke-miterlimit:10;" x1="112" y1="-192" x2="112" y2="0"/>
				<line style="fill:none;stroke:#000000;stroke-width:0.25;stroke-miterlimit:10;" x1="116" y1="-192" x2="116" y2="0"/>
				<line style="fill:none;stroke:#000000;stroke-width:0.25;stroke-miterlimit:10;" x1="120" y1="-192" x2="120" y2="0"/>
				<line style="fill:none;stroke:#000000;stroke-width:0.25;stroke-miterlimit:10;" x1="124" y1="-192" x2="124" y2="0"/>
				<line style="fill:none;stroke:#000000;stroke-width:0.25;stroke-miterlimit:10;" x1="128" y1="-192" x2="128" y2="0"/>
				<line style="fill:none;stroke:#000000;stroke-width:0.25;stroke-miterlimit:10;" x1="132" y1="-192" x2="132" y2="0"/>
				<line style="fill:none;stroke:#000000;stroke-width:0.25;stroke-miterlimit:10;" x1="136" y1="-192" x2="136" y2="0"/>
				<line style="fill:none;stroke:#000000;stroke-width:0.25;stroke-miterlimit:10;" x1="140" y1="-192" x2="140" y2="0"/>
				<line style="fill:none;stroke:#000000;stroke-width:0.25;stroke-miterlimit:10;" x1="144" y1="-192" x2="144" y2="0"/>
				<line style="fill:none;stroke:#000000;stroke-width:0.25;stroke-miterlimit:10;" x1="148" y1="-192" x2="148" y2="0"/>
				<line style="fill:none;stroke:#000000;stroke-width:0.25;stroke-miterlimit:10;" x1="152" y1="-192" x2="152" y2="0"/>
				<line style="fill:none;stroke:#000000;stroke-width:0.25;stroke-miterlimit:10;" x1="156" y1="-192" x2="156" y2="0"/>
				<line style="fill:none;stroke:#000000;stroke-width:0.25;stroke-miterlimit:10;" x1="160" y1="-192" x2="160" y2="0"/>
				<line style="fill:none;stroke:#000000;stroke-width:0.25;stroke-miterlimit:10;" x1="164" y1="-192" x2="164" y2="0"/>
				<line style="fill:none;stroke:#000000;stroke-width:0.25;stroke-miterlimit:10;" x1="168" y1="-192" x2="168" y2="0"/>
				<line style="fill:none;stroke:#000000;stroke-width:0.25;stroke-miterlimit:10;" x1="172" y1="-192" x2="172" y2="0"/>
				<line style="fill:none;stroke:#000000;stroke-width:0.25;stroke-miterlimit:10;" x1="176" y1="-192" x2="176" y2="0"/>
				<line style="fill:none;stroke:#000000;stroke-width:0.25;stroke-miterlimit:10;" x1="180" y1="-192" x2="180" y2="0"/>
				<line style="fill:none;stroke:#000000;stroke-width:0.25;stroke-miterlimit:10;" x1="184" y1="-192" x2="184" y2="0"/>
				<line style="fill:none;stroke:#000000;stroke-width:0.25;stroke-miterlimit:10;" x1="188" y1="-192" x2="188" y2="0"/>
			</g>
			<g>
				<line style="fill:none;stroke:#000000;stroke-width:0.25;stroke-miterlimit:10;" x1="0" y1="-4" x2="192" y2="-4"/>
				<line style="fill:none;stroke:#000000;stroke-width:0.25;stroke-miterlimit:10;" x1="0" y1="-8" x2="192" y2="-8"/>
				<line style="fill:none;stroke:#000000;stroke-width:0.25;stroke-miterlimit:10;" x1="0" y1="-12" x2="192" y2="-12"/>
				<line style="fill:none;stroke:#000000;stroke-width:0.25;stroke-miterlimit:10;" x1="0" y1="-16" x2="192" y2="-16"/>
				<line style="fill:none;stroke:#000000;stroke-width:0.25;stroke-miterlimit:10;" x1="0" y1="-20" x2="192" y2="-20"/>
				<line style="fill:none;stroke:#000000;stroke-width:0.25;stroke-miterlimit:10;" x1="0" y1="-24" x2="192" y2="-24"/>
				<line style="fill:none;stroke:#000000;stroke-width:0.25;stroke-miterlimit:10;" x1="0" y1="-28" x2="192" y2="-28"/>
				<line style="fill:none;stroke:#000000;stroke-width:0.25;stroke-miterlimit:10;" x1="0" y1="-32" x2="192" y2="-32"/>
				<line style="fill:none;stroke:#000000;stroke-width:0.25;stroke-miterlimit:10;" x1="0" y1="-36" x2="192" y2="-36"/>
				<line style="fill:none;stroke:#000000;stroke-width:0.25;stroke-miterlimit:10;" x1="0" y1="-40" x2="192" y2="-40"/>
				<line style="fill:none;stroke:#000000;stroke-width:0.25;stroke-miterlimit:10;" x1="0" y1="-44" x2="192" y2="-44"/>
				<line style="fill:none;stroke:#000000;stroke-width:0.25;stroke-miterlimit:10;" x1="0" y1="-48" x2="192" y2="-48"/>
				<line style="fill:none;stroke:#000000;stroke-width:0.25;stroke-miterlimit:10;" x1="0" y1="-52" x2="192" y2="-52"/>
				<line style="fill:none;stroke:#000000;stroke-width:0.25;stroke-miterlimit:10;" x1="0" y1="-56" x2="192" y2="-56"/>
				<line style="fill:none;stroke:#000000;stroke-width:0.25;stroke-miterlimit:10;" x1="0" y1="-60" x2="192" y2="-60"/>
				<line style="fill:none;stroke:#000000;stroke-width:0.25;stroke-miterlimit:10;" x1="0" y1="-64" x2="192" y2="-64"/>
				<line style="fill:none;stroke:#000000;stroke-width:0.25;stroke-miterlimit:10;" x1="0" y1="-68" x2="192" y2="-68"/>
				<line style="fill:none;stroke:#000000;stroke-width:0.25;stroke-miterlimit:10;" x1="0" y1="-72" x2="192" y2="-72"/>
				<line style="fill:none;stroke:#000000;stroke-width:0.25;stroke-miterlimit:10;" x1="0" y1="-76" x2="192" y2="-76"/>
				<line style="fill:none;stroke:#000000;stroke-width:0.25;stroke-miterlimit:10;" x1="0" y1="-80" x2="192" y2="-80"/>
				<line style="fill:none;stroke:#000000;stroke-width:0.25;stroke-miterlimit:10;" x1="0" y1="-84" x2="192" y2="-84"/>
				<line style="fill:none;stroke:#000000;stroke-width:0.25;stroke-miterlimit:10;" x1="0" y1="-88" x2="192" y2="-88"/>
				<line style="fill:none;stroke:#000000;stroke-width:0.25;stroke-miterlimit:10;" x1="0" y1="-92" x2="192" y2="-92"/>
				<line style="fill:none;stroke:#000000;stroke-width:0.25;stroke-miterlimit:10;" x1="0" y1="-96" x2="192" y2="-96"/>
				<line style="fill:none;stroke:#000000;stroke-width:0.25;stroke-miterlimit:10;" x1="0" y1="-100" x2="192" y2="-100"/>
				<line style="fill:none;stroke:#000000;stroke-width:0.25;stroke-miterlimit:10;" x1="0" y1="-104" x2="192" y2="-104"/>
				<line style="fill:none;stroke:#000000;stroke-width:0.25;stroke-miterlimit:10;" x1="0" y1="-108" x2="192" y2="-108"/>
				<line style="fill:none;stroke:#000000;stroke-width:0.25;stroke-miterlimit:10;" x1="0" y1="-112" x2="192" y2="-112"/>
				<line style="fill:none;stroke:#000000;stroke-width:0.25;stroke-miterlimit:10;" x1="0" y1="-116" x2="192" y2="-116"/>
				<line style="fill:none;stroke:#000000;stroke-width:0.25;stroke-miterlimit:10;" x1="0" y1="-120" x2="192" y2="-120"/>
				<line style="fill:none;stroke:#000000;stroke-width:0.25;stroke-miterlimit:10;" x1="0" y1="-124" x2="192" y2="-124"/>
				<line style="fill:none;stroke:#000000;stroke-width:0.25;stroke-miterlimit:10;" x1="0" y1="-128" x2="192" y2="-128"/>
				<line style="fill:none;stroke:#000000;stroke-width:0.25;stroke-miterlimit:10;" x1="0" y1="-132" x2="192" y2="-132"/>
				<line style="fill:none;stroke:#000000;stroke-width:0.25;stroke-miterlimit:10;" x1="0" y1="-136" x2="192" y2="-136"/>
				<line style="fill:none;stroke:#000000;stroke-width:0.25;stroke-miterlimit:10;" x1="0" y1="-140" x2="192" y2="-140"/>
				<line style="fill:none;stroke:#000000;stroke-width:0.25;stroke-miterlimit:10;" x1="0" y1="-144" x2="192" y2="-144"/>
				<line style="fill:none;stroke:#000000;stroke-width:0.25;stroke-miterlimit:10;" x1="0" y1="-148" x2="192" y2="-148"/>
				<line style="fill:none;stroke:#000000;stroke-width:0.25;stroke-miterlimit:10;" x1="0" y1="-152" x2="192" y2="-152"/>
				<line style="fill:none;stroke:#000000;stroke-width:0.25;stroke-miterlimit:10;" x1="0" y1="-156" x2="192" y2="-156"/>
				<line style="fill:none;stroke:#000000;stroke-width:0.25;stroke-miterlimit:10;" x1="0" y1="-160" x2="192" y2="-160"/>
				<line style="fill:none;stroke:#000000;stroke-width:0.25;stroke-miterlimit:10;" x1="0" y1="-164" x2="192" y2="-164"/>
				<line style="fill:none;stroke:#000000;stroke-width:0.25;stroke-miterlimit:10;" x1="0" y1="-168" x2="192" y2="-168"/>
				<line style="fill:none;stroke:#000000;stroke-width:0.25;stroke-miterlimit:10;" x1="0" y1="-172" x2="192" y2="-172"/>
				<line style="fill:none;stroke:#000000;stroke-width:0.25;stroke-miterlimit:10;" x1="0" y1="-176" x2="192" y2="-176"/>
				<line style="fill:none;stroke:#000000;stroke-width:0.25;stroke-miterlimit:10;" x1="0" y1="-180" x2="192" y2="-180"/>
				<line style="fill:none;stroke:#000000;stroke-width:0.25;stroke-miterlimit:10;" x1="0" y1="-184" x2="192" y2="-184"/>
				<line style="fill:none;stroke:#000000;stroke-width:0.25;stroke-miterlimit:10;" x1="0" y1="-188" x2="192" y2="-188"/>
			</g>
			<g>
				<path d="M191.75-0.25v-191.5H0.25v191.5H191.75 M192,0H0v-192h192V0L192,0z"/>
			</g>
		</g>
	</g>
</symbol>
<symbol  id="material_x5F_product_x5F_icon_x5F_keylines" viewBox="0 -192 192 192">
	<g style="opacity:0.4;">
		<defs>
			<path id="SVGID_00000085953927117155520940000006720838939540087939_" style="opacity:0.4;" d="M0,0v-192h192V0H0z"/>
		</defs>
		<clipPath id="SVGID_00000068653297726847895600000006134732531581829017_">
			<use xlink:href="#SVGID_00000085953927117155520940000006720838939540087939_"  style="overflow:visible;"/>
		</clipPath>
		<g style="clip-path:url(#SVGID_00000068653297726847895600000006134732531581829017_);">
			
				<line style="fill:none;stroke:#000000;stroke-width:0.25;stroke-miterlimit:10;" x1="0.25" y1="-0.25" x2="191.75" y2="-191.75"/>
			<g>
				<path d="M191.75-0.25v-191.5H0.25v191.5H191.75 M192,0H0v-192h192V0L192,0z"/>
			</g>
			
				<line style="fill:none;stroke:#000000;stroke-width:0.25;stroke-miterlimit:10;" x1="191.75" y1="-0.25" x2="0.25" y2="-191.75"/>
			<line style="fill:none;stroke:#000000;stroke-width:0.25;stroke-miterlimit:10;" x1="124" y1="0" x2="124" y2="-192"/>
			<line style="fill:none;stroke:#000000;stroke-width:0.25;stroke-miterlimit:10;" x1="68" y1="0" x2="68" y2="-192"/>
			<line style="fill:none;stroke:#000000;stroke-width:0.25;stroke-miterlimit:10;" x1="192" y1="-124" x2="0" y2="-124"/>
			<line style="fill:none;stroke:#000000;stroke-width:0.25;stroke-miterlimit:10;" x1="192" y1="-68" x2="0" y2="-68"/>
			<circle style="fill:none;stroke:#000000;stroke-width:0.25;stroke-miterlimit:10;" cx="96" cy="-96" r="40"/>
			<line style="fill:none;stroke:#000000;stroke-width:0.25;stroke-miterlimit:10;" x1="0" y1="-96" x2="192" y2="-96"/>
			<line style="fill:none;stroke:#000000;stroke-width:0.25;stroke-miterlimit:10;" x1="96" y1="0" x2="96" y2="-192"/>
		</g>
		<g style="clip-path:url(#SVGID_00000068653297726847895600000006134732531581829017_);">
			<g>
				<path d="M96-8.25c48.386,0,87.75-39.364,87.75-87.75S144.385-183.75,96-183.75S8.25-144.385,8.25-96S47.614-8.25,96-8.25 M96-8
					C47.399-8,8-47.399,8-96s39.399-88,88-88c48.601,0,88,39.399,88,88S144.601-8,96-8L96-8z"/>
			</g>
		</g>
		<g style="clip-path:url(#SVGID_00000068653297726847895600000006134732531581829017_);">
			<g>
				<path d="M160-20.25c6.479,0,11.75-5.271,11.75-11.75v-128c0-6.479-5.271-11.75-11.75-11.75H32c-6.479,0-11.75,5.271-11.75,11.75
					v128c0,6.479,5.271,11.75,11.75,11.75H160 M160-20H32c-6.6,0-12-5.4-12-12v-128c0-6.6,5.4-12,12-12h128c6.6,0,12,5.4,12,12v128
					C172-25.4,166.6-20,160-20L160-20z"/>
			</g>
		</g>
		<g style="clip-path:url(#SVGID_00000068653297726847895600000006134732531581829017_);">
			<g>
				<path d="M148-8.25c6.479,0,11.75-5.271,11.75-11.75v-152c0-6.479-5.271-11.75-11.75-11.75H44c-6.479,0-11.75,5.271-11.75,11.75
					v152c0,6.479,5.271,11.75,11.75,11.75H148 M148-8H44c-6.6,0-12-5.4-12-12v-152c0-6.6,5.4-12,12-12h104c6.6,0,12,5.4,12,12v152
					C160-13.4,154.6-8,148-8L148-8z"/>
			</g>
		</g>
		<g style="clip-path:url(#SVGID_00000068653297726847895600000006134732531581829017_);">
			<g>
				<path d="M172-32.25c6.479,0,11.75-5.271,11.75-11.75v-104c0-6.479-5.271-11.75-11.75-11.75H20c-6.479,0-11.75,5.271-11.75,11.75
					v104c0,6.479,5.271,11.75,11.75,11.75H172 M172-32H20c-6.6,0-12-5.4-12-12v-104c0-6.6,5.4-12,12-12h152c6.6,0,12,5.4,12,12v104
					C184-37.4,178.6-32,172-32L172-32z"/>
			</g>
		</g>
	</g>
</symbol>
<g id="back" style="display:none;">
	<path style="display:inline;fill:#E0E0E0;" d="M160,172H32c-6.6,0-12-5.4-12-12V32c0-6.6,5.4-12,12-12h128c6.6,0,12,5.4,12,12v128
		C172,166.6,166.6,172,160,172z"/>
</g>
<g id="back_x2C__edge" style="display:none;">
	<path style="display:inline;fill:#FFFFFF;fill-opacity:0.2;" d="M160,20H32c-6.6,0-12,5.4-12,12v1c0-6.6,5.4-12,12-12h128
		c6.6,0,12,5.4,12,12v-1C172,25.4,166.6,20,160,20z"/>
	<path style="display:inline;fill:#212121;fill-opacity:0.1;" d="M160,172H32c-6.6,0-12-5.4-12-12v-1c0,6.6,5.4,12,12,12h128
		c6.6,0,12-5.4,12-12v1C172,166.6,166.6,172,160,172z"/>
</g>
<g id="front" style="display:none;">
	<g style="display:inline;">
		<g>
			
				<image style="overflow:visible;opacity:0.1;" width="484" height="484" xlink:href="819F7E90.png"  transform="matrix(0.24 0 0 0.24 38 44)">
			</image>
			<circle style="fill:#616161;" cx="96" cy="96" r="40"/>
		</g>
	</g>
</g>
<g id="front_x2C__edge" style="display:none;">
	<path style="display:inline;fill:#FFFFFF;fill-opacity:0.1;" d="M96,57c21.924,0,39.718,17.64,39.987,39.5
		C135.989,96.333,136,96.168,136,96c0-22.091-17.909-40-40-40S56,73.909,56,96c0,0.168,0.011,0.333,0.013,0.5
		C56.282,74.64,74.076,57,96,57z"/>
	<path style="display:inline;fill:#212121;fill-opacity:0.2;" d="M96,135c21.924,0,39.718-17.64,39.987-39.5
		C135.989,95.667,136,95.832,136,96c0,22.091-17.909,40-40,40s-40-17.909-40-40c0-0.168,0.011-0.333,0.013-0.5
		C56.282,117.36,74.076,135,96,135z"/>
</g>
<g id="finish" style="display:none;">
	
		<radialGradient id="SVGID_00000002353538590252602660000007467338612933627576_" cx="23.7676" cy="23.9332" r="204.6249" gradientUnits="userSpaceOnUse">
		<stop  offset="0" style="stop-color:#FFFFFF;stop-opacity:0.1"/>
		<stop  offset="1" style="stop-color:#FFFFFF;stop-opacity:0"/>
	</radialGradient>
	<path style="display:inline;fill:url(#SVGID_00000002353538590252602660000007467338612933627576_);" d="M160,172H32
		c-6.6,0-12-5.4-12-12V32c0-6.6,5.4-12,12-12h128c6.6,0,12,5.4,12,12v128C172,166.6,166.6,172,160,172z"/>
</g>
<g id="border" style="display:none;">
	
		<use xlink:href="#material_x5F_product_x5F_icon_x5F_border"  width="192" height="192" y="-192" transform="matrix(1 0 0 -1 0 0)" style="display:inline;overflow:visible;"/>
</g>
<g id="grid" style="display:none;">
	
		<use xlink:href="#material_x5F_product_x5F_icon_x5F_grid"  width="192" height="192" id="XMLID_1_" x="0" y="-192" transform="matrix(1 0 0 -1 0 0)" style="display:inline;overflow:visible;opacity:0.15;"/>
</g>
<g id="keylines" style="display:none;">
	
		<use xlink:href="#material_x5F_product_x5F_icon_x5F_keylines"  width="192" height="192" x="0" y="-192" transform="matrix(1 0 0 -1 0 0)" style="display:inline;overflow:visible;"/>
</g>
<g id="image">
	<g>
		<path style="fill:#B2B2B2;" d="M165.334,56.318h-6.438l-1.859-10.402c-0.439-2.59-2.961-4.45-5.838-4.449
			c-0.291,0-0.586,0.019-0.883,0.058L52.284,54.562l2.446,1.756h-0.044l5.542,4h105.106c0.918,0,1.666,0.747,1.666,1.666v34.069
			l-15.995-15.911c-0.743-0.739-1.93-0.779-2.72-0.093l-27.902,24.121l3.329,2.407l25.788-22.289L167,101.693v35.682l4,2.887V61.983
			C171,58.854,168.463,56.318,165.334,56.318z M69.048,56.318l81.793-10.827c0.119-0.016,0.24-0.024,0.359-0.024
			c1.02,0,1.803,0.578,1.894,1.118l1.745,9.733H69.048z"/>
		<path style="fill:#B2B2B2;" d="M38.493,146.533c-0.918,0-1.666-0.747-1.666-1.666v-3.671l51.529-31.302l17.258,10.587
			c0.744,0.455,1.698,0.38,2.355-0.194l3.7-3.208l-3.356-2.384l-1.857,1.61l-17.05-10.459c-0.64-0.392-1.444-0.395-2.084-0.004
			l-50.496,30.674V63.16l-3.024-2.183l0.02-0.003l-0.291-0.193l-0.484-0.35c-0.002,0.008-0.003,0.017-0.005,0.025l-4.194-2.779
			l-2.812,0.287c-3.228,0.427-5.454,3.085-4.97,5.938l11.686,68.954l-0.022-24.065L25.01,63.234
			c-0.012-0.071-0.049-0.287,0.168-0.58c0.277-0.375,0.794-0.646,1.383-0.724l6.345-0.835c-0.047,0.29-0.078,0.585-0.078,0.888
			v82.885c0,3.129,2.537,5.666,5.666,5.666h119.398l-5.542-4H38.493z"/>
	</g>
	<g>
		<path style="fill:#B2B2B2;" d="M178.27,157.5c-0.405,0-0.814-0.123-1.169-0.378L12.088,38.03
			c-0.896-0.646-1.098-1.896-0.451-2.792c0.646-0.896,1.896-1.098,2.792-0.451l165.013,119.091c0.896,0.646,1.098,1.896,0.451,2.793
			C179.502,157.212,178.891,157.5,178.27,157.5z"/>
	</g>
	<g>
		<path style="fill:#B2B2B2;" d="M68.551,86.333c-1.193,1.553-3.255,2.583-5.597,2.583c-3.685,0-6.683-2.544-6.683-5.67
			c0-1.651,0.841-3.134,2.172-4.172l-3.32-2.384c-1.764,1.725-2.852,4.025-2.852,6.556c0,5.333,4.792,9.67,10.683,9.67
			c3.674,0,6.92-1.688,8.843-4.252L68.551,86.333z"/>
	</g>
</g>
</svg>
