<?xml version="1.0" encoding="UTF-8" standalone="no"?>
<!-- Created with Inkscape (http://www.inkscape.org/) -->

<svg
   xmlns:dc="http://purl.org/dc/elements/1.1/"
   xmlns:cc="http://creativecommons.org/ns#"
   xmlns:rdf="http://www.w3.org/1999/02/22-rdf-syntax-ns#"
   xmlns:svg="http://www.w3.org/2000/svg"
   xmlns="http://www.w3.org/2000/svg"
   xmlns:sodipodi="http://sodipodi.sourceforge.net/DTD/sodipodi-0.dtd"
   xmlns:inkscape="http://www.inkscape.org/namespaces/inkscape"
   width="48"
   height="48"
   viewBox="0 0 12.7 12.7"
   version="1.1"
   id="svg8"
   inkscape:version="0.92.3 (2405546, 2018-03-11)"
   sodipodi:docname="progress.svg">
  <defs
     id="defs2" />
  <sodipodi:namedview
     id="base"
     pagecolor="#ffffff"
     bordercolor="#666666"
     borderopacity="1.0"
     inkscape:pageopacity="0.0"
     inkscape:pageshadow="2"
     inkscape:zoom="17.08866"
     inkscape:cx="16.111902"
     inkscape:cy="22.882917"
     inkscape:document-units="mm"
     inkscape:current-layer="layer1"
     showgrid="false"
     units="px"
     inkscape:window-width="1920"
     inkscape:window-height="1016"
     inkscape:window-x="1920"
     inkscape:window-y="1107"
     inkscape:window-maximized="1" />
  <metadata
     id="metadata5">
    <rdf:RDF>
      <cc:Work
         rdf:about="">
        <dc:format>image/svg+xml</dc:format>
        <dc:type
           rdf:resource="http://purl.org/dc/dcmitype/StillImage" />
        <dc:title></dc:title>
      </cc:Work>
    </rdf:RDF>
  </metadata>
  <g
     inkscape:label="Layer 1"
     inkscape:groupmode="layer"
     id="layer1"
     transform="translate(0,-284.29997)">
    <path
       d="m 3.9414062,14.369141 c -1.7788785,0 -3.24804682,1.469174 -3.24804682,3.248047 v 12.761718 c 0,1.778873 1.46916832,3.25586 3.24804682,3.25586 H 44.054688 c 1.77888,0 3.248046,-1.476987 3.248046,-3.25586 V 17.617188 c 0,-1.778873 -1.469166,-3.248047 -3.248046,-3.248047 z m 0,2.501953 H 44.054688 c 0.437121,0 0.753906,0.308916 0.753906,0.746094 v 12.761718 c 0,0.43714 -0.31677,0.753906 -0.753906,0.753906 H 3.9414062 c -0.4371216,0 -0.7441406,-0.316917 -0.7441406,-0.753906 V 17.617188 c 0,-0.437141 0.3070191,-0.746094 0.7441406,-0.746094 z m 2.2050782,3.014644 c -0.2770001,0 -0.5,0.222961 -0.5,0.5 v 7.34556 c 0,0.277002 0.2229984,0.5 0.5,0.5 h 8.9765626 c 0.277,0 0.5,-0.222961 0.5,-0.5 v -7.34556 c 0,-0.277002 -0.222999,-0.5 -0.5,-0.5 z m 13.3417966,0 c -0.277,0 -0.5,0.222961 -0.5,0.5 v 7.34556 c 0,0.277002 0.222999,0.5 0.5,0.5 h 8.976563 c 0.277,0 0.5,-0.222961 0.5,-0.5 v -7.34556 c 0,-0.277002 -0.222999,-0.5 -0.5,-0.5 z"
       transform="matrix(0.26458333,0,0,0.26458333,0,284.29997)"
       id="rect843"
       inkscape:connector-curvature="0"
       style="stroke-width:1.93479002"
       sodipodi:nodetypes="ssssssssssssssssssssssssssssssssssss" />
  </g>
</svg>
