<?xml version="1.0" encoding="UTF-8" standalone="no"?>
<svg
   xmlns:dc="http://purl.org/dc/elements/1.1/"
   xmlns:cc="http://creativecommons.org/ns#"
   xmlns:rdf="http://www.w3.org/1999/02/22-rdf-syntax-ns#"
   xmlns:svg="http://www.w3.org/2000/svg"
   xmlns="http://www.w3.org/2000/svg"
   xmlns:sodipodi="http://sodipodi.sourceforge.net/DTD/sodipodi-0.dtd"
   xmlns:inkscape="http://www.inkscape.org/namespaces/inkscape"
   width="24"
   height="24"
   version="1.1"
   viewBox="0 0 24 24"
   id="svg14"
   sodipodi:docname="repository-settings.svg"
   inkscape:version="0.92.4 (5da689c313, 2019-01-14)">
  <defs
     id="defs18" />
  <sodipodi:namedview
     pagecolor="#ffffff"
     bordercolor="#666666"
     borderopacity="1"
     objecttolerance="10"
     gridtolerance="10"
     guidetolerance="10"
     inkscape:pageopacity="0"
     inkscape:pageshadow="2"
     inkscape:window-width="929"
     inkscape:window-height="480"
     id="namedview16"
     showgrid="false"
     inkscape:zoom="9.8333333"
     inkscape:cx="12"
     inkscape:cy="12"
     inkscape:window-x="1289"
     inkscape:window-y="499"
     inkscape:window-maximized="0"
     inkscape:current-layer="svg14" />
  <metadata
     id="metadata2">
    <rdf:RDF>
      <cc:Work
         rdf:about="">
        <dc:format>image/svg+xml</dc:format>
        <dc:type
           rdf:resource="http://purl.org/dc/dcmitype/StillImage" />
        <dc:title></dc:title>
      </cc:Work>
    </rdf:RDF>
  </metadata>
  <path
     d="M0 0h24v24H0z"
     fill="none"
     id="path4" />
  <path
     d="m22.085 6.0188c0.02007-0.15054 0.0301-0.30608 0.0301-0.47166 0-0.16056-0.0101-0.32113-0.03513-0.47166l1.0186-0.79279c0.09032-0.070244 0.11541-0.20573 0.06021-0.30608l-0.9634-1.6659c-0.060211-0.11039-0.18565-0.14552-0.29604-0.11039l-1.1992 0.4817c-0.25087-0.19067-0.5168-0.35124-0.81285-0.47166l-0.18064-1.2745c-0.020065-0.12042-0.12042-0.20573-0.24085-0.20573h-1.9268c-0.12042 0-0.21576 0.085308-0.23583 0.20573l-0.18064 1.2745c-0.29604 0.12042-0.567 0.28601-0.81287 0.47166l-1.1992-0.4817c-0.11039-0.040146-0.23583 0-0.29604 0.11039l-0.95838 1.6659c-0.06021 0.10537-0.04015 0.23583 0.06021 0.30608l1.0186 0.79279c-0.02508 0.15054-0.04516 0.31612-0.04516 0.47166 0 0.15555 0.0101 0.32113 0.03513 0.47166l-1.0186 0.79279c-0.09032 0.070244-0.1154 0.20573-0.06021 0.30608l0.9634 1.6659c0.06021 0.11039 0.18565 0.14552 0.29604 0.11039l1.1992-0.4817c0.25088 0.19067 0.51682 0.35124 0.81286 0.47166l0.18064 1.2745c0.02508 0.12042 0.12042 0.20572 0.24085 0.20572h1.9268c0.12042 0 0.22078-0.08531 0.23583-0.20572l0.18064-1.2745c0.29604-0.12042 0.567-0.28099 0.81286-0.47166l1.1992 0.4817c0.11039 0.040146 0.23583 0 0.29604-0.11039l0.9634-1.6659c0.06021-0.11039 0.03513-0.23583-0.06021-0.30608zm-3.5826 1.3347c-0.9935 0-1.8064-0.81287-1.8064-1.8064 0-0.9935 0.81286-1.8064 1.8064-1.8064 0.9935 0 1.8064 0.81287 1.8064 1.8064 0 0.9935-0.81286 1.8064-1.8064 1.8064z"
     stroke-width=".50177"
     id="path6" />
  <g
     transform="matrix(0.78704,0,0,0.79176,-0.19737,5.71688)"
     id="g12">
    <path
       d="M 0,0 H 24 V 24 H 0 Z"
       id="path8"
       inkscape:connector-curvature="0"
       style="fill:none" />
    <path
       d="M 2,20 H 22 V 16 H 2 Z m 2,-3 h 2 v 2 H 4 Z M 2,4 V 8 H 22 V 4 Z M 6,7 H 4 V 5 H 6 Z M 2,14 H 22 V 10 H 2 Z m 2,-3 h 2 v 2 H 4 Z"
       id="path10"
       inkscape:connector-curvature="0" />
  </g>
</svg>
