<?xml version="1.0" encoding="UTF-8" standalone="no"?>
<svg
   height="24px"
   viewBox="0 0 24 24"
   width="24px"
   version="1.1"
   id="svg27"
   sodipodi:docname="stop_schedule.svg"
   inkscape:version="1.1.1 (3bf5ae0d25, 2021-09-20)"
   xmlns:inkscape="http://www.inkscape.org/namespaces/inkscape"
   xmlns:sodipodi="http://sodipodi.sourceforge.net/DTD/sodipodi-0.dtd"
   xmlns="http://www.w3.org/2000/svg"
   xmlns:svg="http://www.w3.org/2000/svg">
  <defs
     id="defs31" />
  <sodipodi:namedview
     id="namedview29"
     pagecolor="#ffffff"
     bordercolor="#666666"
     borderopacity="1.0"
     inkscape:pageshadow="2"
     inkscape:pageopacity="0.0"
     inkscape:pagecheckerboard="0"
     showgrid="false"
     inkscape:zoom="48.083333"
     inkscape:cx="12"
     inkscape:cy="12"
     inkscape:window-width="2560"
     inkscape:window-height="1351"
     inkscape:window-x="2391"
     inkscape:window-y="-9"
     inkscape:window-maximized="1"
     inkscape:current-layer="svg27" />
  <path
     d="M0 0h24v24H0z"
     fill="none"
     id="path21" />
  <path
     id="path23"
     d="m 14.996094,0.7734375 c -4.572895,0 -8.2753909,3.7103088 -8.2753909,8.2832031 0,0.2791774 0.014057,0.5560184 0.041016,0.828125 H 8.4316406 C 8.3978094,9.613283 8.3769531,9.3373237 8.3769531,9.0566406 c 0,-3.6616291 2.9672769,-6.6269531 6.6289059,-6.6269531 3.66163,0 6.626953,2.965324 6.626953,6.6269531 0,3.6616294 -2.965323,6.6289064 -6.626953,6.6289064 -0.280683,0 -0.556642,-0.02086 -0.828125,-0.05469 v 1.669922 c 0.269516,0.02651 0.541857,0.04102 0.81836,0.04102 4.581178,0 8.292968,-3.712262 8.292968,-8.2851564 0,-4.5728943 -3.71179,-8.2832031 -8.292968,-8.2832031 z" />
  <path
     id="path25"
     d="m 15.419411,4.915078 h -1.242635 v 4.9705373 l 4.349221,2.6095317 0.621317,-1.01896 -3.727903,-2.2118889 z"/>
  <path
     id="path159"
     d="M 1.4246101,10.637782 H 13.42461 V 22.637781 H 1.4246101 Z"/>
</svg>
